<?xml version="1.0" encoding="utf-8"?>
<!-- Generator: Adobe Illustrator 22.0.1, SVG Export Plug-In . SVG Version: 6.00 Build 0)  -->
<svg version="1.1" id="Layer_1" xmlns="http://www.w3.org/2000/svg" xmlns:xlink="http://www.w3.org/1999/xlink" x="0px" y="0px"
	 viewBox="0 0 200 200" style="enable-background:new 0 0 200 200;" xml:space="preserve">
<style type="text/css">
	.st0{fill:#4BB5AB;}
	.st1{fill:none;stroke:#4CB5AB;stroke-width:1.2567;stroke-miterlimit:10;}
	.st2{fill:#2E3047;}
</style>
<g>
	<g>
		<path class="st0" d="M89.8,86.8L82.9,93l-1.1,21.4l14.1,0.4l0.4-20L89.8,86.8z M89.6,94.6c-1.2-0.1-2.1-1.1-2.1-2.2
			c0-1,1-1.8,2.1-1.7c1.1,0.1,2.1,1.1,2.1,2.2C91.7,94,90.8,94.7,89.6,94.6z"/>
		<path class="st0" d="M88.5,96.9c2.1-2.8,1.1-7.1-2.2-9.6c-3.3-2.4-7.7-2.2-9.8,0.6c-1.2,1.6-1.3,3.6-0.8,5.6L62,106.3l5.1,5.1
			l13.7-12.7C83.7,99.7,86.9,99.1,88.5,96.9z M83.5,92.1c-0.9-0.7-1.2-1.9-0.6-2.8c0.6-0.9,1.9-0.9,2.8-0.2c0.9,0.7,1.2,1.9,0.6,2.8
			C85.7,92.7,84.4,92.8,83.5,92.1z"/>
		
			<ellipse transform="matrix(0.4816 -0.8764 0.8764 0.4816 -28.0357 123.2621)" class="st1" cx="90.2" cy="85.3" rx="7.9" ry="4.9"/>
	</g>
	<path class="st2" d="M19.6,143.7c4.4-2.8,10.9-3.5,15.9-4.8c6.7-1.8,14.2-3.1,20.4-6.4c10.9-5.2,22.7-8.9,31.2-17.6
		c2.9-3.1,7.1-10.1,8.3-14c0.9-3-0.8-7-1.4-10.1c-0.5-2.2-0.7-4.5-0.1-6.7c0.3-1.1,0.9-2.1,0.9-3.3c0-0.3-0.4-3.1-0.7-3.1
		c2.2-0.2,3.8,1.5,5.9,0.8c4.4-1.5,8.4,0.1,11.9,3c1.8,1.4,4.2,5.7,7,5.6c2.8-0.2,29.2-18.9,34.1-23.6c6.4-5.4,23.3-22.2,26.2-23.7
		c3.3,4.1-2.2,10-4.1,12.4c1.7,0.4,5.5-1,5.4,1.9c-0.3,2.1-4.6,2.6-5.4,4.4c2.8-0.2,4,1.9,3.9,4.8c-0.7,4.2-3.8,4.5-6.6,6.3
		c1,1,3.2,3.7,2.8,5.4c-0.6,2.5-3.6,2-4.3,4.2c-0.8,1.8,1.2,3.7,0.4,5.5c-0.9,1.4-3.9,2.1-5.3,3.2c2,2,0.5,2.3-0.4,3.7
		c-0.2,0.8-1.1,0.6-1.6,1.9c-0.2,0.8,0.8,1.8,0.7,3.1c-0.3,2.5-1.7,1.2-2.6,2.6c-1.3,2-0.1,3.1-2.8,4.3c-0.8,0.4-3.2,1.2-4.3,0.6
		c0.6,0.8,1,2.6,0.6,3.3c-1.6,2.5-10.2,1.4-12.6,1.3c-2.1-0.3-4.3-1.4-4.6,1c-0.7,2.2,3.5,6.8,4.7,8.6c2.2,2.7,6.6,7.2,9.1,9.4
		c4.2,3.8,8.7,5.4,14.3,6.1c3.2,0.4,6.4,0.6,9.5,1c5.4,0.7,2.7,3.5-0.8,4.4c1.2,0.3,1.7,2,0.9,3.7c-0.4,0.9-2,0.3-3,0.5
		c4,2.3-7.5,4-8.2,4.2c0.2,1.6,1.2,3.3,1,4.9c-0.7,2.2-2.9,5-4.7,4.2c-1.8-0.8-3.5-4.8-5.4-6.4c-1.9-1.6-8.6-8-10.9-9.5
		c-2.3-1.5-7.4,0.6-10.3,0.1c-8.2-1.4-11.7-5.4-17.8-7.7c-0.8,1.8,0.1,4-0.6,6.2c-0.7,2.2-2.4,1.7-3.7,3.2c-1.2,1.9,0,3.6-2,5.3
		c-1.7,1.6-4,0.1-5.4,0.8c-1.8,0.8-2.1,3.3-4.1,4.9c-3.1,2.3-7.6,1.7-11.5,2.5c-2.9,0.6-5.2,1.7-8.2,1.2c-3-0.4-4.5,1.6-7.5,1.8
		c-1,0.1-1.4,0.3-2.4-0.2c-0.8-0.4-1-1.4-2-1.5c-1.2-0.1-2.9,1.4-4.1,1.7c-3.4,1-3.4-0.1-4.2-3.1c-2.2,1.3-4.6,4.2-7.8,4.1
		c-2.9-0.1-3-2-3.7-4.2c-2.5,0.4-5.7,1.9-7.9,1.2c-1.5-0.5-4.8-2.9-2.9-4.5c-2.5-1-8.3,2-9.7-1.8c-0.7-1.8,0.4-2.6,1.9-3
		c-3.1,0.3-5.6-0.5-8.4-2.3c0.4-0.4,1.1-0.6,1.8-0.8C22,145,20.1,144.8,19.6,143.7z"/>
</g>
</svg>
