<?xml version="1.0" encoding="utf-8"?>
<!-- Generator: Adobe Illustrator 22.0.1, SVG Export Plug-In . SVG Version: 6.00 Build 0)  -->
<svg version="1.1" id="Layer_1" xmlns="http://www.w3.org/2000/svg" xmlns:xlink="http://www.w3.org/1999/xlink" x="0px" y="0px"
	 viewBox="0 0 200 200" style="enable-background:new 0 0 200 200;" xml:space="preserve">
<style type="text/css">
	.st0{fill:#2E3047;}
	.st1{fill:#FFFFFF;stroke:#4CB5AB;stroke-width:0.8146;stroke-miterlimit:10;}
	.st2{fill:#FFFFFF;stroke:#4BB5AB;stroke-width:0.8146;stroke-miterlimit:10;}
	.st3{fill:#4BB5AB;}
</style>
<g>
	<path class="st0" d="M147.5,98.4c-4.5-1.2-17.4-5-25.6-10.6c0.3,0,0.7,0,1,0.1c1.7,0,5.9,0.6,7.2-0.4c-1.1-1-2.4-1.4-3.7-1.9
		c-2.3-1-4.2-2.3-6.5-3.5c-5.8-3.7-24.4-15.4-35.8-17.4c-7.2-2.2-12.9-0.9-14.3-1.1c-6.6-1.2-11.3-1.2-16.8,3.7
		c-4.4,3.9-3,11.1-2.9,12.5c0.1,2-2.7,5.4-2.5,7.1c1.1-0.1,4.8-3.8,6.8-2.3c1,1.4,3.4,4.3,4.4,5.7c7.4,11.3,20.7,15.8,21.9,16.6
		c-3.3,2.2,1.7,4.5,3.8,3.8c1.5-0.5,2-2.6,3.6-2.6c9.7,1.7,18-2.4,21.9-5c2.1,0.4,4.3,0.6,6.2,0.8c3.8,0.2,8.7,0.5,12.4-0.4
		c-1.5-1.3-3.6-2.3-5.3-3.4c-1.1-0.8-2.3-1.4-3.6-2c0.2-0.1,0.4-0.2,0.6-0.2c3.4-0.9,15.9,3.3,18.5,5c1.5,1,6.5,4.3,8.1,3
		c0.4-0.4,0.6-1.9,0.9-2.3c0.7-1.1,0.8-0.8,0.2-1.8c-0.6-1-1.3-1.5-2.3-1.7c1-0.4,2.9,0.8,3.8,0.4C151.2,99.1,148.1,98.5,147.5,98.4
		z"/>
	<path class="st0" d="M166.1,166.7c-3-0.4-6.7-1.1-9.5-2.4c-2.1-1-3.7-2.5-5.9-3.3c-5.3-2.1-11.6-3.2-15.8-7.4
		c-2.3-2.2-4.4-4.5-6.7-6.8c-3.2-3.2-24.1-22-26.5-24.6c-4.3-4.8-9.3-8.1-14.6-12c-3.3-2.4-10.7-7.9-17.5-13
		c-0.9,1.1-1.8,2.2-2.7,3.3c7,5.4,15.1,11.6,17,13c3.7,2.9,9.6,4.8,13.9,8.7c5.7,5.1,23.2,27.1,33.1,33.8c2.3,1.6,4.8,2.9,7.2,4.1
		c2.5,1.3,4,2.2,5.7,4c1.6,1.6,8.8,3.5,8,6.4c-0.6,2.5-9.7,5.2-11.9,6.5c0.4,1,0.9,2,1.5,2.9c0.2,0.3,7-3.7,7.7-4.1
		c2.7-1.4,5.5-2.5,8.5-2.3c5.4,0.3,9.1,1.4,14.4-0.5c1.5-0.5,7.7-2.6,7.3-5C178.7,165,168.2,166.9,166.1,166.7z"/>
	<path class="st0" d="M182.5,127.8c0.2-0.8,1.6-0.7,2-1.3c1-2-3-1-3.8-0.9c-4.4,0.5-10.6,1.5-15,0.3c-1.3-0.3-5.6-2-9.6-3.6
		c4.3-0.8,10.1-1.9,12-3.1c-2.1-1.3-12.2-1.9-14.6-2.6c-7.3-2.4-15.2-3.6-23-4.9c-5.2-1.3-11.9-2.7-14.6-3.1
		c-3.9-0.6-8.4-2.5-13.4-0.8c-3.9,1.3-6.6,4.7-7,7.7c-0.1,1.7,0.4,3.5,0.2,5.3c-0.2,1.2-2.1,3.2-1.9,4.8c0.9,0.2,3.7-1.3,4.4-0.5
		s0.3,3.7,0.3,5.5c0.8,4.3,1.8,6.8,4.8,10.2c3.5,3.9,7.1,5.7,11.9,7.9c2.1,1.1,10.2,2.9,11.6,3.2c-3.5,1.7-1.4,3.2,1.3,4.1
		c1.1,0.5,2.7,0.4,3.3-0.6c0.6-1-0.8-4,0.4-4c8.5-0.2,16.2-6.3,18.2-10.1c0.9-1.8,1.6-5.3,3.7-5.8c1-0.3,6.6-2.4,8.7-2.8
		c3.8-0.6,7.9-1.4,11.7-1c2.3,0.2,5.5,0.7,7.7,0.4c1.5-0.2,4,0,5.4-0.8C186.3,130.3,182.2,128.9,182.5,127.8z"/>
	<path class="st0" d="M38.5,54.4c0.6-1,1-2.3,1.9-2.7c1.1-0.4,2.2-0.6,3.4-1.2c1.7-0.9,2.4-2.1,3.2-3.8c0.7-1.5,1.6-3,2.4-4.5
		c0.5-0.9,1.6-1.5,2-2.3c-0.4-0.3-0.9-0.3-1.4-0.5c-0.9-0.2-1.7-0.7-2.6-0.8C45,38.1,42,39.1,40,40.3c-3.2,1.9-2.9,5.2-3,8.5
		c-0.1,1.5,0.8,5.9-0.5,6.9c-0.7-1.9-1.5-3.6-2.2-5.3c0,0-2.6-9.8-2.5-11c0.3-3.2,0.7-5-0.4-8.1c-0.6-2-2.3-3.6-3.2-5.5
		c-0.8-1.8-0.7-3.8-1.1-5.7c-3.9,3.5-6.3,6.2-5.5,11.2c0.7,4.4,4.8,7.8,8.8,9.2c0,0.7,5.5,17.2,2.9,11.1
		c-2.5-4.1-6.1-10.6-14.9-11.4c-1.9-0.2-3.9,1.3-5.6,0.1c0.2,3,2.7,7.2,4.4,9.6c3.1,4.3,7.9,7,12.5,4.9c1.8-0.8,2.3-2.8,5,1.1
		c1.5,2.3,2.6,7.2,4.5,9.3c1,1.1,2.5,4.4,4.1,6.8c-2.9-0.7-6.3-4.4-8.7-4.7c-2.9-0.3-7.2,1.2-9.5,3.1c-3,2.4-3.6,7.2-7.2,9.1
		c3.6-1.8,7,2.2,10.4,2.6c3.2,0.4,7.4-1.3,9.4-3.7c1.2-1.5,1.1-3.4,3.2-4c1.4-0.4,2.7,0.4,3.8,1.1c3.4,2.3,7,5.2,9.8,8.4
		c2.7,3.2,5.8,5.8,8.7,8.8c1.8,1.9,3.5,3.6,5.4,5.2c1.6-0.8,3.1-1.6,4.7-2.4c-3.6-2.3-7-5.1-10.1-7.8c-5.6-4.9-13.7-9.2-17.6-16
		c-0.1,0-0.1,0.1-0.2,0.1c-1.7-2.7-3.6-5.3-5.2-8.1C38.5,61,36.8,57.3,38.5,54.4z"/>
	<g>
		<path class="st1" d="M47.5,87.2c-0.5,0.6-0.7,1.4-0.8,2.3"/>
		<path class="st2" d="M50.3,86c-1.1-0.2-2.2,0.2-2.9,1.2"/>
		<g>
			<path class="st1" d="M46.6,89.5c0,0.7,0,1.3,0.2,1.9"/>
			<path class="st1" d="M51,94.5c1.2-0.5,2-1.8,2.2-3.5c0-0.3,0-0.6,0-0.9"/>
			<path class="st3" d="M50.1,90.9l-1.8,5.4l5.7,11.8l7.7-4L56,93.2L50.1,90.9z M52.3,95.1c-0.7,0.3-1.5,0-1.8-0.5
				c-0.3-0.6,0-1.2,0.6-1.5c0.6-0.3,1.5,0,1.8,0.5C53.3,94.2,53,94.8,52.3,95.1z"/>
			<path class="st1" d="M49.4,94.6c0.5,0.1,1,0.1,1.5-0.1"/>
			<path class="st3" d="M52.4,96.7c0.3-2.1-1.5-4.2-4-4.5c-2.5-0.3-4.8,1.1-5.1,3.2c-0.2,1.2,0.3,2.3,1.3,3.3l-3.6,11l4.2,1.3
				l3.6-10.9C50.6,99.6,52.2,98.3,52.4,96.7z M48.3,95.6c-0.7-0.1-1.2-0.7-1.1-1.3c0.1-0.7,0.8-1.1,1.5-1c0.7,0.1,1.2,0.7,1.1,1.3
				C49.6,95.3,49,95.7,48.3,95.6z"/>
			<path class="st1" d="M53.2,90.2c-0.1-2.1-1.2-3.9-2.8-4.2l0,0l0,0"/>
			<path class="st1" d="M46.8,91.4c0.2,0.6,0.4,1.2,0.7,1.6"/>
			<path class="st1" d="M47.5,93.1c0.5,0.8,1.2,1.4,2,1.6"/>
		</g>
	</g>
</g>
</svg>
