<?xml version="1.0" encoding="utf-8"?>
<!-- Generator: Adobe Illustrator 22.0.1, SVG Export Plug-In . SVG Version: 6.00 Build 0)  -->
<svg version="1.1" id="Layer_1" xmlns="http://www.w3.org/2000/svg" xmlns:xlink="http://www.w3.org/1999/xlink" x="0px" y="0px"
	 viewBox="0 0 200 200" style="enable-background:new 0 0 200 200;" xml:space="preserve">
<style type="text/css">
	.st0{fill:#4BB5AB;stroke:#FFFFFF;stroke-miterlimit:10;}
	.st1{fill:none;stroke:#4BB5AB;stroke-miterlimit:10;}
	.st2{fill:#2E3047;}
</style>
<g>
	<g>
		<path class="st0" d="M137,100l0.3,7.1l12.2,11.3l7.2-8.2L145,100L137,100z M141.5,104c-0.7,0.7-1.7,0.7-2.3,0.2
			c-0.6-0.5-0.6-1.5,0.1-2.1c0.6-0.6,1.7-0.7,2.3-0.2C142.2,102.4,142.2,103.3,141.5,104z"/>
		<path class="st0" d="M142.4,105.7c-0.6-2.6-3.7-4.2-6.8-3.4c-3.1,0.7-5.1,3.5-4.5,6.2c0.4,1.5,1.5,2.6,3,3.2l0.8,14.6l5.6-0.5
			l-0.8-14.5C141.6,110,142.9,107.8,142.4,105.7z M137,106.4c-0.9,0.2-1.8-0.2-2-1c-0.2-0.8,0.4-1.6,1.3-1.8c0.9-0.2,1.8,0.2,2,1
			C138.5,105.4,137.9,106.1,137,106.4z"/>
		<ellipse transform="matrix(0.9311 -0.3647 0.3647 0.9311 -26.7205 56.5374)" class="st1" cx="136.3" cy="99" rx="3.8" ry="6.2"/>
	</g>
	<path class="st2" d="M59.2,32.9c5.5,8.9,13.9,16.4,21.4,24c6,6.8,18.2,16.1,13.4,26.6c1.4-3.2,2.9-6.3,4.3-9.5
		c0.7-1.5,1.1-2.4,1.3-4c0.1-1.1-0.1-2.5,0.7-3.4c1-1.1,2.8-0.5,4.2-0.5c-0.5-3,0.5-6.4,1.9-9c1.6-2.8,1.8-2.4,4.6-1.8
		c-0.3-2.9-1.6-8.3,0.1-10.9c1.9-3,4.4,1.4,4.8,3.4c0-3.6-0.1-7.2,0.2-10.8c0.1-1.2,0.1-4.8,1.1-5.7c1.9-1.7,2.1,1.3,2.1,2.6
		c0.1,9.3,2.9,18.9,1.7,28.2c-0.6,5.2-1.8,11-4.1,15.9c-0.7,1.5-2,3.3-2.9,5c2.8-2.4,6.9-1.6,10.1-0.4c4.3,1.5,5.9,5.1,6.7,7.2
		c0.4,1.2,2.8,1.9,2.3,3.5c0.1-0.2-3.3,1.2-3.6,1.4c-0.7,0.5-3.2,5.5-4.2,7.7c-2.3,4-2.3,9-5.2,14.3c-8.4,15.3-10,11.8-12.3,17.3
		c-2,4.7-4.8,9.7-7.4,7.5c-2.9-2.5-6.3,1.7-10.7,3.7c-2.2,1.7-6.7,18.6-6.8,34.2c-2.9,1.4-3.5-0.2-5.8-0.4c-1.3-0.1-1.8,1-3.3,1.2
		c-1.7-0.3-2.8-1.8-4.4-2.4c-1.1-0.5-4.1-1-5.6-0.7c-0.1-8.7-2.1-0.5-7.1-1.4c-2.8-0.8-4.9-2.2-7-4.6c-2.1-2.3-8.6-4.5-6-6.5
		c7.5-5.7,21.4-16.4,26-22.5c3.3-4.4,3.3-11,4.6-16.1c1.2-4.5,3-8.5,5.1-12.6c1.7-3.4-0.5-6.4-3.2-9.3c-2.8-2.9-5.1-6.2-7.4-9.4
		c-1.5-2-3.8-3.9-4.3-6.4c-0.5-2.3,1.6-5.6,0.2-7.4c-1.6-2.1-4.5-0.4-4.1-3.9c0.2-2.2,1.1-4,2.1-5.8c-2.3-0.7-5.6-0.9-5.7-3.6
		c-0.2-3.3,2.9-4.4,4.6-6.3c-1.5-1.2-3.7-0.8-5.3-2.1c-1.6-1.2-2.6-2.4-2.4-4.4c0.5-4.1,3.6-3,6.6-3.1c-1.7-3.1-4.6-5.6-6.7-8.5
		c-1.9-2.6-2-4.4-1.6-7.5c1.6-0.2,3.9,1.2,4.8,2.4c-0.7-5.8-7.8-12.1-4.1-18.1C56.1,22.9,56.9,29.1,59.2,32.9z"/>
</g>
</svg>
