<?xml version="1.0" encoding="utf-8"?>
<!-- Generator: Adobe Illustrator 22.0.1, SVG Export Plug-In . SVG Version: 6.00 Build 0)  -->
<svg version="1.1" id="Layer_1" xmlns="http://www.w3.org/2000/svg" xmlns:xlink="http://www.w3.org/1999/xlink" x="0px" y="0px"
	 viewBox="0 0 200 200" style="enable-background:new 0 0 200 200;" xml:space="preserve">
<style type="text/css">
	.st0{fill:#2E3047;}
	.st1{fill:#4BB5AB;}
	.st2{fill:none;stroke:#4CB5AB;stroke-width:1.0764;stroke-miterlimit:10;}
</style>
<g>
	<path class="st0" d="M147.5,65.6c-0.9-1.2-1.1-2.8-1.7-4.1c-0.4-0.9,4.5-5,6-7.8c-1.2,0.8-8.2,3.2-8.8,2.1
		c-1.3-2.4,4.1-7.1,4.8-8.7c-1.3-0.7-7.6,2.1-7.8,1.9c-2.5-2.9-5.9-5-11-4.9c-18.8,0.2-22.1,23.1-24.1,26.7
		c-1.6,3.2-11.3,9.1-15.3,13.1c-2,2-31.8,32-36.1,40c3.5-0.3,12.1-5.2,14.9-4.8c-3.2,13.5-41.9,34.1-39.1,35.3
		c3.6,1.6,6.7-2.2,8.3,0.6c3.2,5.6,17.9-8.8,22.7-11.2c3.6-1.6,16.6-7.5,20.6-6.7c5.2,1.6,7.6,4.9,13.1,6.1
		c5.6,0.8,13.5,1.8,18.6,0.2c-0.1,0.7,0.1,1.4,0.5,2.1c0.4,0.7,1.1,1.3,1.9,1.8c0.4,2,5.1,4.7,7.1,3.5c3.2-1.6,6-1.8,6.8-7
		c0.4-1.2-1.2-7.1-5.2-4.4c13.9-9.5,31.6-25,31.6-43.4C155.2,79.3,150.1,69,147.5,65.6z"/>
	<g>
		<path class="st1" d="M139.4,69.5l-11.9,22.8l16.1,8.3l12-24.7l-3.8-11.2L139.4,69.5z M145.7,70.4c0.6-1.2,2.4-1.7,3.7-1.1
			c1.3,0.6,1.9,2,1.3,3.2c-0.6,1.2-2.3,1.7-3.7,1.1C145.6,73,145.1,71.5,145.7,70.4z"/>
		<path class="st1" d="M154.5,83.6l7.6,22.8l8.8-2.6l-7.6-22.9c1.9-1.9,3-4.2,2.6-6.8c-0.6-4.4-5.5-7.5-10.7-6.8
			c-5.3,0.7-9,5-8.4,9.4C147.4,80.3,150.6,82.9,154.5,83.6z M152.4,72.5c-0.2-1.4,0.9-2.6,2.4-2.8c1.5-0.2,2.9,0.6,3.1,2
			c0.2,1.4-0.9,2.6-2.4,2.8C154,74.7,152.6,73.9,152.4,72.5z"/>
		<ellipse class="st2" cx="152.1" cy="62.8" rx="6.3" ry="10.2"/>
	</g>
</g>
</svg>
