<?xml version="1.0" encoding="utf-8"?>
<!-- Generator: Adobe Illustrator 20.1.0, SVG Export Plug-In . SVG Version: 6.00 Build 0)  -->
<svg version="1.1" xmlns="http://www.w3.org/2000/svg" xmlns:xlink="http://www.w3.org/1999/xlink" x="0px" y="0px"
	 viewBox="0 0 600 300" style="enable-background:new 0 0 600 300;" xml:space="preserve">
<style type="text/css">
	.st0{fill:#B37C57;}
	.st1{fill:#DAC0AC;}
	.st2{fill:#A3AAB1;}
	.st3{fill:#CBC5C1;}
	.st4{fill:#4C586F;}
	.st5{fill:#FFFFFF;stroke:#4C586F;stroke-miterlimit:10;}
	.st6{font-family:'ProximaNovaA-Extrabld';}
	.st7{font-size:12px;}
	.st8{font-family:'ProximaNovaA-Semibold';}
	.st9{fill:#BCBEC0;}
	.st10{font-size:11px;}
	.st11{opacity:0.66;fill:url(#SVGID_1_);}
	.st12{fill:#FFFFFF;}
	.st13{font-family:'ProximaNovaA-Thin';}
	.st14{display:none;}
	.st15{display:inline;}
</style>
<g id="Layer_1">
	<g>
		<g>
		</g>
		<g>
		</g>
		<g>
		</g>
		<g>
		</g>
		<g>
		</g>
		<g>
		</g>
	</g>
	<g>
		<g>
			<g>
				<path class="st0" d="M300.2,150l-103.9-49.2c27.2-57.4,95.7-81.9,153.1-54.7c8.2,3.9,15,8.1,22.1,13.7L300.2,150z"/>
			</g>
		</g>
		<g>
			<g>
				<path class="st1" d="M300.2,150l71.8,89.8c-49.6,39.7-121.9,31.7-161.6-17.9c-28.3-35.4-33.6-80.1-14.2-121L300.2,150z"/>
			</g>
		</g>
		<g>
			<g>
				<path class="st2" d="M300.2,150l86.3,75.9c-4.5,5.1-9.2,9.6-14.5,13.8L300.2,150z"/>
			</g>
		</g>
		<g>
			<g>
				<path class="st3" d="M300.2,150l111.9,26.5c-4.5,19-12.7,34.8-25.5,49.4L300.2,150z"/>
			</g>
		</g>
		<g>
			<g>
				<path class="st4" d="M300.2,150l115,2.7c-0.2,9-1,15.1-3.1,23.8L300.2,150z"/>
			</g>
		</g>
		<g>
			<g>
				<path class="st2" d="M300.2,150l71.3-90.2c29.1,23,44.5,55.7,43.6,92.9L300.2,150z"/>
			</g>
		</g>
	</g>
	<path class="st5" d="M174.8,181.4H87.6c-3.7,0-6.8-3-6.8-6.8v-49.1c0-3.7,3-6.8,6.8-6.8h87.2c3.7,0,6.8,3,6.8,6.8V143l10.6,7
		l-10.6,7v17.6C181.6,178.3,178.6,181.4,174.8,181.4z"/>
	<text transform="matrix(1 0 0 1 92.9835 139.6637)"><tspan x="0" y="0" class="st6 st7">Office &amp; Work</tspan><tspan x="4.2" y="14" class="st8 st7">$18,419 Sold</tspan><tspan x="24.7" y="28" class="st9 st8 st10">(43%)</tspan></text>
</g>
<g id="Layer_2">
	<linearGradient id="SVGID_1_" gradientUnits="userSpaceOnUse" x1="300" y1="150" x2="300" y2="265.2951">
		<stop  offset="0" style="stop-color:#000000;stop-opacity:0"/>
		<stop  offset="1" style="stop-color:#000000;stop-opacity:0.66"/>
	</linearGradient>
	<circle class="st11" cx="300" cy="150" r="115"/>
	
		<image style="overflow:visible;opacity:0.5;" width="857" height="857" xlink:href="C6EC364AE8E36DAF.png"  transform="matrix(0.24 0 0 0.24 197.2312 35.2312)">
	</image>
	<g>
		<circle class="st12" cx="300" cy="150" r="42.8"/>
	</g>
</g>
<g id="Layer_3">
	<text transform="matrix(1 0 0 1 234.3743 12.8776)"><tspan x="0" y="0" class="st6 st7">Zone 1</tspan><tspan x="-110.7" y="14.4" class="st13 st7">Living Room &amp; Entertainment</tspan></text>
	<text transform="matrix(1 0 0 1 187.0795 256.8776)"><tspan x="0" y="0" class="st6 st7">Zone 4</tspan><tspan x="-64.3" y="14.4" class="st13 st7">Office &amp; Workspace</tspan></text>
	<line class="st5" x1="278.7" y1="5" x2="278.7" y2="58.8"/>
	<line class="st5" x1="232" y1="217" x2="232" y2="270.8"/>
	<text transform="matrix(1 0 0 1 398.5658 61.2989)"><tspan x="0" y="0" class="st6 st7">Zone 6</tspan><tspan x="0" y="14.4" class="st13 st7">Accessories</tspan></text>
	<line class="st5" x1="390.7" y1="53.4" x2="390.7" y2="107.2"/>
	<text transform="matrix(1 0 0 1 409.8511 117.333)"><tspan x="0" y="0" class="st6 st7">Zone 3</tspan><tspan x="0" y="14.4" class="st13 st7">Kitchen &amp; Dining</tspan></text>
	<line class="st5" x1="401.9" y1="109.5" x2="401.9" y2="163.3"/>
	<text transform="matrix(1 0 0 1 402.5176 237.7846)"><tspan x="0" y="0" class="st6 st7">Zone 2</tspan><tspan x="0" y="14.4" class="st13 st7">Bedroom</tspan></text>
	<text transform="matrix(1 0 0 1 378.6323 265.0005)"><tspan x="0" y="0" class="st6 st7">Zone 5</tspan><tspan x="0" y="14.4" class="st13 st7">Outdoor &amp; Garden</tspan></text>
	<line class="st5" x1="394.6" y1="199" x2="394.6" y2="252.8"/>
	<line class="st5" x1="372.6" y1="225.9" x2="372.6" y2="279.8"/>
</g>
<g id="Layer_4" class="st14">
	<g class="st15">
		<circle class="st12" cx="300" cy="150" r="50.1"/>
	</g>
</g>
</svg>
