<?xml version="1.0" encoding="utf-8"?>
<!-- Generator: Adobe Illustrator 21.1.0, SVG Export Plug-In . SVG Version: 6.00 Build 0)  -->
<svg version="1.1" id="Layer_1" xmlns="http://www.w3.org/2000/svg" xmlns:xlink="http://www.w3.org/1999/xlink" x="0px" y="0px"
	 viewBox="0 0 500 429.7" style="enable-background:new 0 0 500 429.7;" xml:space="preserve">
<style type="text/css">
	.st0{fill:#4C586F;}
	.st1{fill:#E5E6E7;stroke:#000000;stroke-miterlimit:10;}
	.st2{fill:#FFFFFF;}
	.st3{fill:none;stroke:#3E3E3B;stroke-width:2;stroke-miterlimit:10;}
	.st4{fill:#4C586F;stroke:#000000;stroke-miterlimit:10;}
	.st5{fill:#AD7C57;stroke:#3E3E3B;stroke-miterlimit:10;}
	.st6{fill:#E5E6E7;stroke:#3E3E3B;stroke-miterlimit:10;}
	.st7{fill:none;stroke:#3E3E3B;stroke-miterlimit:10;}
	.st8{fill:#C5BFBB;stroke:#3E3E3B;stroke-miterlimit:10;}
	.st9{opacity:0.33;fill:#9CA4AA;enable-background:new    ;}
	.st10{fill:url(#SVGID_1_);stroke:url(#SVGID_2_);stroke-miterlimit:10;}
	.st11{opacity:0.54;fill:#3E3E3B;enable-background:new    ;}
	.st12{fill:#9CA4AA;}
	.st13{fill:#C5BFBB;}
	.st14{opacity:0.5;fill:url(#SVGID_3_);enable-background:new    ;}
	.st15{fill:#E5E6E7;}
	.st16{fill:#AD7C57;}
	.st17{fill:url(#SVGID_4_);}
	.st18{fill:#070707;}
	.st19{fill:#F4F4F4;}
	.st20{fill:#151515;}
</style>
<polygon class="st0" points="364.5,285.8 204.3,285.8 154.9,185.3 301.7,185.3 363.9,285.8 "/>
<polygon class="st1" points="193.2,284.5 183.1,263.8 235.9,255.9 253.6,281.8 "/>
<g>
	<g>
		<path class="st2" d="M253.8,213.4c-0.4-0.6-0.8-1.2-1.6-1.5c-0.7-0.5-1.6-0.7-2.7-0.7c-1.1,0-1.8,0.1-2.1,0.5
			c-0.4,0.4-0.5,1.2-0.5,2.5c0,1.3-0.4,2.2-1.2,2.8c-0.8,0.6-2.3,0.9-4.6,0.8c-2.2-0.1-4.3-0.6-6.2-1.5c-1.9-0.9-3.2-2-3.9-3.4
			c-1.1-2-0.6-3.8,1.4-5.2c1.6,0.6,2.5,0.9,4,1.5c-1.6,1.2-2,2.5-1.3,3.9c0.4,0.7,0.9,1.3,1.8,1.6c0.8,0.5,1.8,0.7,2.7,0.7
			c1.1,0,1.6-0.1,2-0.5c0.4-0.4,0.5-1.1,0.5-1.9c0-0.9,0-1.6,0.1-2.1c0.1-0.5,0.4-0.9,0.8-1.3c0.7-0.7,2.3-1.1,4.7-0.9
			s4.5,0.6,6.2,1.5s2.9,2,3.6,3.3c0.5,0.8,0.6,1.6,0.5,2.5c-0.1,0.8-0.5,1.4-1.2,2c-1.5-0.5-2.3-0.8-3.9-1.3
			c0.5-0.4,0.8-0.8,0.9-1.5C254.3,214.7,254.1,214,253.8,213.4z"/>
		<path class="st2" d="M242.4,226.2c0.4,0.7,0.9,1.4,1.8,2c0.8,0.6,1.9,1.2,3.3,1.8c-0.8,0.5-1.3,0.8-2.1,1.3
			c-3.8-1.5-6.2-3.2-7.2-5.2c-1.1-2-0.6-3.5,1.2-4.7c1.9-1.2,4.7-1.6,8.6-1.5c3.9,0.1,7.4,0.9,10.7,2.3c3.3,1.4,5.4,3.1,6.5,5
			s0.5,3.6-1.8,4.8c-1.5-0.6-2.2-0.9-3.8-1.5c0.8-0.6,1.4-1.1,1.5-1.6c0.2-0.5,0.1-1.2-0.4-1.9c-0.7-1.3-2.1-2.5-4.2-3.4
			c-2.1-0.9-4.6-1.5-7.2-1.6c-2.6-0.1-4.6,0.2-5.9,1.1C242.1,223.9,241.8,225,242.4,226.2z"/>
		<path class="st2" d="M249.3,235.7c-2.6-0.6-4-0.9-6.6-1.5c-0.5-0.9-0.7-1.4-1.2-2.3c11.6,2.7,17.4,4,29,6.7
			c0.5,0.9,0.7,1.4,1.2,2.3c-9.2,1.9-13.7,2.8-22.9,4.6c-0.5-0.9-0.7-1.4-1.2-2.3c2.1-0.5,3.2-0.6,5.2-1.1
			C251.4,239.5,250.7,238.3,249.3,235.7z M256.4,241.4c3.8-0.7,5.6-1.2,9.5-1.9c-4.8-1.1-7.2-1.6-12-2.8
			C254.8,238.6,255.3,239.5,256.4,241.4z"/>
		<path class="st2" d="M280.8,258c0.5,0.8,0.7,1.3,1.2,2.1c-10.3-0.5-15.6-0.6-25.9-1.1c-0.5-0.9-0.7-1.4-1.3-2.3
			c6-2.6,9-3.9,15-6.5c-7.6-0.4-11.4-0.5-18.9-0.8c-0.5-0.8-0.7-1.3-1.2-2.1c10.3,0.5,15.6,0.6,25.9,1.1c0.5,0.8,0.7,1.3,1.2,2.1
			c-6.2,2.7-9.3,4-15.4,6.7C269.2,257.5,273,257.6,280.8,258z"/>
	</g>
</g>
<g>
	<path class="st3" d="M173.1,158.2c-5.3,2.1-6.7,9-3.2,15.5"/>
	<path class="st3" d="M189.7,178.6c2-3.2,2-8-0.5-12.6c-0.5-0.8-0.9-1.5-1.5-2.2"/>
	<path class="st4" d="M99.8,158c0,0,2.1-2,2.2-5.5c0.1-3.5-10.1-3.2-10.1-3.2S93.9,155,99.8,158z"/>
	<path class="st5" d="M183.4,169.5l-6.7,16l15.3,34.5l24.2-7.7l-15.3-34.5L183.4,169.5z M189.3,183c-2.1,0.7-4.5-0.2-5.3-2
		c-0.8-1.8,0.2-3.8,2.3-4.5c2.1-0.7,4.5,0.2,5.3,2C192.5,180.3,191.5,182.3,189.3,183z"/>
	<path class="st6" d="M173.7,114.2c3.5-4,29.3-27.8,29.3-27.8c4.7-4,0-4.9,0-4.9c-7,0.9-10.6-0.9-24.7,0
		c-14.1,0.9-22.3,4.9-45.8,10.9c-23.5,6-47,6-47,6s-20,28.9,8.2,53.8c0,0,17.6,0.9,24.7,6.9c7,6,18.8,8,29.3,8.9
		c10.6,0.9,15.3,4,24.7,2.9c0,0,1.2-8-12.9-10.9c-14.1-2.9-17.6-6.9-20-12.9s0-16,12.9-18s20,2,21.1,6.9c1.2,4.9-1.2,8-2.3,12.9
		c-1.2,4.9,0,10,8.2,14c4.7-4.9,3.5-10,8.2-16.9s2.6-22.1-5.9-27.8c-5.9-4-15.3-6-24.7-6"/>
	<path class="st6" d="M170.2,89.3c0,0,5.9,0.9,14.1,0s16.4-2.9,29.3-0.9s17.6,4,17.6,6.9c0,0-2.3,4-11.7,2.9
		c-9.4-1.1-18.8,0.9-27,2.9"/>
	<path class="st6" d="M173.1,114.6c0,0,15.8-5.4,37,1.5c12.8,4.2,22.3,6.9,27,2c0-4-9.4-6.9-21.1-12c-21.1-8.9-45.8-8-45.8-8"/>
	<path class="st4" d="M85.7,98.2c2.3-6,10.6-8,10.6-8s2.3,2.9,3.5,6.9L85.7,98.2"/>
	<path class="st3" d="M178.3,181.2c2.7,1.1,5.4,1.3,7.7,0.4c1.5-0.6,2.8-1.6,3.6-2.9"/>
	<path class="st7" d="M173.1,158.4v-0.2"/>
	<path class="st8" d="M190.8,186.3c0-6.6-6.3-12-14.1-12c-7.7,0-14.1,5.4-14.1,12c0,3.8,2,7,5.2,9.3l-6.4,34.8l13.4,2l6.4-34.7
		C186.6,196.1,190.8,191.5,190.8,186.3z M177.8,184.8c-2.2,0-4.1-1.5-4.1-3.5s1.9-3.5,4.1-3.5s4.1,1.5,4.1,3.5
		S180.1,184.8,177.8,184.8z"/>
	<path class="st3" d="M187.7,163.8c-3.9-4.9-9.9-7.5-14.6-5.6l0,0v0.2"/>
	<path class="st3" d="M170,173.7c2,3.5,5,6.2,8.2,7.6"/>
	<path class="st9" d="M85.7,98.8c0,0-10.9,16.6-5.3,29.8S91,149.5,93.9,152c0,0-18.7-32-2-53.2C91.9,98.8,85.7,98.8,85.7,98.8z"/>
	
		<linearGradient id="SVGID_1_" gradientUnits="userSpaceOnUse" x1="34.3139" y1="380.3138" x2="186.3335" y2="392.6398" gradientTransform="matrix(1 0 0 -1 0 502)">
		<stop  offset="0" style="stop-color:#9CA4AA;stop-opacity:0"/>
		<stop  offset="1" style="stop-color:#9CA4AA"/>
	</linearGradient>
	
		<linearGradient id="SVGID_2_" gradientUnits="userSpaceOnUse" x1="15.3598" y1="390.5999" x2="106.765" y2="373.9543" gradientTransform="matrix(1 0 0 -1 0 502)">
		<stop  offset="0" style="stop-color:#3E3E3B;stop-opacity:0"/>
		<stop  offset="1" style="stop-color:#3E3E3B"/>
	</linearGradient>
	<path class="st10" d="M20.9,81.3l73,8.9c-10.6,4-28.2,34.9,5.9,67.6L15,146.9"/>
	<path class="st9" d="M157.9,111.7c0,0,22.3-7.6,43.4,1.6c0,0-14.8-3.4-27.4,0.9C174,114.3,166.6,111.4,157.9,111.7z"/>
	<path class="st9" d="M155.3,128.7c0,0-6.8-2.1-17.4,1.9c-10.6,4-7,12-5.9,14.9c1.3,3.4,7,6.9,11.7,8.9c0,0-7.2-6-5.9-14
		C139.2,132.6,145,129.6,155.3,128.7z"/>
	<path class="st9" d="M170.8,96.9c0,0,18.8-2,36.4,0c0,0-8.2,1.1-10.6,2.1C196.6,99,184.9,96.3,170.8,96.9z"/>
</g>
<path class="st1" d="M183.1,287.8c0,0,9.4,2.9,15.3,8c5.9,4.9,18.8,16.9,24.7,24.9l51.7-23.8c0,0-12.9-16-25.8-22.9
	c-12.9-6.9-17.6-6.9-17.6-6.9S199.6,283.8,183.1,287.8z"/>
<path class="st11" d="M182.5,288.3c0,0,9.4,2.9,15.3,8c5.9,4.9,18.8,16.9,24.7,24.9C195.4,293.2,182.5,288.3,182.5,288.3z"/>
<g>
	<path class="st12" d="M293.1,323.2c25.8-1.1,109.6,0,109.6,0c16,0,18.4-2,18.4-16.3c0-14.3,0-79.8,0-79.8s10.6-52.8,18.8-52.8
		c8.2,0,19.5,7.7,20.8,31.3c1.2,23.6,22.2,157.7,24.7,175c2.5,17.4-2.2,24.7-20.7,26.6c-18.3,2-128.2,10.1-128.2,10.1
		c-22.3,1.8-34.4-11.9-34.9-18.3l-0.1-5.1c10.5-6.3,72.4-16.8,67-28c-7.6-15.6-77.5-20.7-94.9-27.6c-2.5-1-3.9-3.8-3.9-4.9l-0.2-7
		L293.1,323.2z"/>
	<path class="st13" d="M438.8,178c0,0,15.3,2.2,16.4,25.1s22.3,155.2,24.7,172.1c2.3,16.9,2.3,25.8-15.3,27.8
		c-17.5,2-130.3,10-130.3,10c-18.8,0.9-26.5-8.4-32.4-17.3c-1.3-2,0.9-5.8,4.7-7.3c17-6.6,67.6-15.9,62.5-26.7
		c-7.8-16.6-94.7-20.3-98.2-29.2c-3.5-8.9-2.3-14,22.3-14.9c24.7-0.9,104.5,0,104.5,0c15.3,0,17.6-2,17.6-16s0-77.6,0-77.6
		L438.8,178z"/>
	
		<linearGradient id="SVGID_3_" gradientUnits="userSpaceOnUse" x1="453.3296" y1="211.245" x2="363.0774" y2="168.5581" gradientTransform="matrix(1 0 0 -1 0 502)">
		<stop  offset="0" style="stop-color:#3E3E3B;stop-opacity:0"/>
		<stop  offset="1" style="stop-color:#3E3E3B"/>
	</linearGradient>
	<path class="st14" d="M438.8,178c0,0,15.3,2.2,16.4,25.1s22.3,155.2,24.7,172.1c2.3,16.9,2.3,25.8-15.3,27.8
		c-7.7,0.8-64.2,5.6-97,7.6c56.3-2.9,1.5-82.6,27.2-83.7c24.7-0.9,20.5-25.4,20.5-25.4V230L438.8,178z"/>
	<path class="st0" d="M460.7,76.8l-81,268.6c0,0,32.9-75.1,51.7-137.8S460.7,76.8,460.7,76.8z"/>
	<polygon class="st12" points="369.1,345.4 379.7,345.4 460.7,76.8 450.1,74.9 	"/>
	<polygon class="st15" points="369.1,29.1 307.5,228.9 366.5,327.5 440.1,81.5 	"/>
	<polygon class="st16" points="330.9,211.5 341.1,180.8 377.6,223.5 366.2,259.1 	"/>
	<g>
		<g>
			<path class="st2" d="M344.6,213.1c-1.1-1.8-1.8-2.6-2.9-4.3c1.2-4.3,1.6-8.2,2.4-12.3c0.9,1.2,1.5,2,2.6,3.7
				c0.5,0.7,0.9,1.4,1.1,2.1c0.3,0.7,0.6,1.3,0.7,1.9c0.2,1.1,0.2,2,0,2.8c-0.1,0.9-0.5,1.4-0.9,1.4c-0.1,0-0.2,0-0.3-0.1
				c0,0-0.1-0.1-0.2-0.1c0.3,0.8,0.7,1.7,0.8,2.5c0.1,0.8,0.1,1.6-0.1,2.5c-0.1,0.8-0.5,1.4-1,1.5
				C346.2,215,345.6,214.4,344.6,213.1z M344.3,203c0.6,0.8,0.9,1.3,1.5,2.3c0.8,1.3,1.4,1.4,1.5,0.4c0.1-0.6,0.1-1.2-0.1-1.8
				c-0.1-0.6-0.4-1.2-0.9-1.9c-0.6-1-0.9-1.4-1.5-2.3C344.6,201,344.4,201.7,344.3,203z M343.2,208.6c0.7,1.1,1,1.6,1.8,2.6
				c0.5,0.6,0.8,1,1,1.1c0.2,0.1,0.5-0.2,0.6-0.8c0.3-1.1-0.2-2.4-1.1-3.9c-0.7-1.1-1-1.6-1.6-2.5
				C343.6,206.5,343.5,207.2,343.2,208.6z"/>
			<path class="st2" d="M350.4,217.8c0.2,1.1,0.7,2.1,1.3,3c0.7,0.8,1.3,1.2,1.7,1.1c0.5-0.2,0.8-0.9,1.1-2.1
				c0.4-2.8,0.7-4.1,1.1-6.7c0.6,0.7,0.8,1.1,1.4,1.9c-0.5,2.5-0.7,3.7-1.2,6.5c-0.3,1.8-0.9,2.9-1.7,3.1c-0.8,0.2-1.9-0.5-2.9-1.9
				c-1-1.4-1.7-3.1-2.1-4.7c-0.3-1.7-0.3-3.3,0.1-5c0.7-2.7,0.9-4.1,1.3-6.9c0.6,0.7,0.8,1.1,1.2,1.8c-0.5,2.7-0.8,4-1.4,6.5
				C350.2,215.7,350.2,216.8,350.4,217.8z"/>
			<path class="st2" d="M360,235.5c-0.6-0.8-0.8-1.3-1.4-2.3c0.4-1.8,0.7-2.8,1.1-4.8c-0.5-5.1-0.5-7.1-1.5-11.7
				c0.8,1.1,1.1,1.6,1.7,2.4c0.4,3.1,0.5,4.7,0.7,8.5c1.3-1.1,1.9-1.9,3.1-3c0.5,0.7,0.8,1.1,1.4,1.9c-1.8,1.1-2.5,2.8-4.2,4.1
				C360.5,232.7,360.2,233.8,360,235.5z"/>
		</g>
	</g>
	<g>
		<g>
			<path class="st0" d="M372.6,92.1c-0.2-0.2-0.3-0.2-0.6-0.5c0.4-1.6,0.6-2.6,1-4.3c0.1-3.3,0.1-5,0.3-7.7c0.1,0.1,0.2,0.2,0.5,0.5
				c0,2-0.1,3.3-0.1,5.8c0.7-1.9,1.1-2.8,1.9-4.3c0.2,0.2,0.3,0.4,0.7,0.5c-1,2.1-1.5,3.4-2.6,5.8C373.2,89.6,373,90.4,372.6,92.1z"
				/>
			<path class="st0" d="M377.5,94.2c-0.6,0.8-1.2,0.9-1.7,0.5s-0.8-1.2-0.9-2.6c-0.1-1.3,0.1-2.9,0.3-4.6c0.4-1.8,0.8-3,1.4-3.7
				c0.6-0.8,1.2-0.9,1.8-0.5c0.6,0.4,0.9,1.3,1.1,2.6c0.1,1.4-0.1,2.9-0.5,4.6C378.6,92.1,378.1,93.4,377.5,94.2z M378.6,86.8
				c-0.1-0.9-0.3-1.7-0.7-1.9s-0.8-0.1-1.2,0.4c-0.4,0.6-0.7,1.5-1,2.7c-0.3,1.2-0.3,2.2-0.3,3.2c0.1,0.9,0.3,1.5,0.7,1.9
				c0.3,0.2,0.7,0.1,1.2-0.4c0.4-0.6,0.7-1.5,1-2.6C378.5,89,378.7,87.9,378.6,86.8z"/>
			<path class="st0" d="M379.6,94.7c0,0.7,0.1,1.2,0.3,1.3c0.2,0.2,0.5,0,0.7-0.5c0.2-0.5,0.5-1.2,0.8-2.2c0.6-2.5,0.9-3.6,1.4-6.2
				c0.2,0.2,0.3,0.4,0.6,0.6c-0.5,2.6-0.8,3.7-1.4,6.2c-0.4,1.5-0.8,2.6-1.3,3.3c-0.5,0.6-0.7,0.8-1.1,0.4c-0.3-0.4-0.6-1-0.5-2
				c0-1.1,0.2-2.3,0.6-3.9c0.6-2.5,0.9-3.7,1.4-6.2c0.2,0.1,0.3,0.2,0.6,0.5c-0.5,2.5-0.8,3.7-1.4,6.2
				C379.7,93.2,379.6,94,379.6,94.7z"/>
			<path class="st0" d="M386.2,94.4c-0.4,1.8-0.9,2.7-1.6,2.8c0.1,1.9,0,2.8,0.1,4.8c-0.3-0.2-0.6-0.4-0.9-0.7
				c-0.1-1.9-0.1-2.7-0.1-4.5c-0.3-0.2-0.5-0.4-0.8-0.6c-0.4,1.4-0.5,2.1-0.9,3.6c-0.2-0.2-0.3-0.2-0.6-0.5c1-4.3,1.7-6.3,2.6-10.7
				c0.5,0.5,0.7,0.7,1.3,1.1c0.6,0.5,0.9,1.1,1,1.8C386.5,92.1,386.4,93.1,386.2,94.4z M385,95.3c0.2-0.2,0.4-0.7,0.5-1.4
				c0.1-0.7,0.1-1.2,0.2-1.5c-0.1-0.4-0.2-0.7-0.6-1c-0.3-0.2-0.5-0.4-0.7-0.6c-0.4,1.5-0.5,2.3-0.9,3.9c0.3,0.2,0.5,0.4,0.8,0.6
				C384.5,95.4,384.7,95.5,385,95.3z"/>
			<path class="st0" d="M389.2,103.4c0.2,0.1,0.5,0.2,0.6,0.1c0.2-0.1,0.5-0.3,0.7-0.8c0.1,0.6,0.1,0.9,0.1,1.6
				c-0.6,1.2-1.2,1.5-1.8,1.1c-0.6-0.5-0.9-1.4-1-3c-0.2-1.4,0-3.1,0.2-4.7c0.3-1.6,0.8-2.8,1.3-3.6c0.6-0.7,1.2-0.9,1.8-0.4
				c0.6,0.5,1,1.4,1.1,3c-0.2,0.3-0.4,0.5-0.6,0.9c-0.1-0.6-0.2-1.1-0.3-1.4c-0.1-0.4-0.3-0.6-0.6-0.7c-0.3-0.2-0.8-0.3-1.2,0.3
				c-0.4,0.6-0.6,1.3-0.9,2.4c-0.1,1.2-0.3,2.2-0.1,3.2C388.7,102.4,388.9,103.1,389.2,103.4z"/>
			<path class="st0" d="M392.1,104.7c-0.5,0.9-0.6,1.4-1.1,2.3c-0.3-0.2-0.5-0.5-0.7-0.6c1.9-4.7,2.5-6.2,4.6-9.3
				c0.3,0.2,0.6,0.5,1,0.7c-0.1,4.6,0.2,7.4-0.3,12.9c-0.5-0.4-0.6-0.5-1-0.8c0.1-1.3,0.2-1.9,0.2-3.2
				C393.6,106.1,393.2,105.6,392.1,104.7z M394.8,104.8c0.1-2.2,0.1-3.3,0-5.2c-0.9,1.4-1.2,2.1-2,3.7
				C393.7,103.8,394,104.2,394.8,104.8z"/>
			<path class="st0" d="M403.2,107.1c-0.5,1.9-1.2,2.9-2.2,2.8c0.1,2.2,0.2,3.3,0.1,5.4c-0.5-0.4-0.7-0.5-1.2-1c0-2,0-3.1-0.1-5.1
				c-0.5-0.4-0.8-0.6-1.3-1c-0.4,1.5-0.6,2.3-1.2,4c-0.3-0.4-0.6-0.5-1-0.7c1.5-4.8,1.9-7.2,3-11.2c0.9,0.6,1.4,1,2.3,1.5
				c0.9,0.6,1.5,1.3,1.7,2C403.6,104.8,403.6,105.8,403.2,107.1z M401.6,107.8c0.2-0.2,0.5-0.7,0.7-1.4c0.3-0.7,0.3-1.3,0-1.8
				c-0.1-0.4-0.4-0.8-1-1.2c-0.5-0.4-0.8-0.5-1.3-0.9c-0.4,1.5-0.6,2.3-1,4c0.5,0.4,0.8,0.6,1.3,1
				C400.9,107.9,401.2,108,401.6,107.8z"/>
			<path class="st0" d="M406.6,107.3c-1,3.9-1.8,6.3-3.2,10.1c-0.2-0.2-0.3-0.4-0.6-0.6c1.4-3.8,2-6.3,3.1-10
				c-0.6-0.4-0.8-0.6-1.5-1.1c0.1-0.7,0.3-1.1,0.4-1.6c1.6,1.1,2.3,1.6,3.1,2.4c-0.1,0.7-0.3,1.1-0.5,1.7
				C407.3,107.9,407.1,107.7,406.6,107.3z"/>
		</g>
	</g>
	<g>
		<g>
			<path class="st12" d="M352,108.3c4.7,0,10.1,3.9,8.5,9.1c-0.1,0.3,0.2,0.7,0.6,0.7c1.6,0,2.8,0.1,4,1.3c1,1.2,1.9,3,2.4,4.5
				c0.7,1.9,0.6,4.1,2,5.7c0.8,1,2,1.6,3.2,1.6c0.6,0,1.3-0.3,1.9-0.3c1.9,0.2,1.9,2.2,1.9,3.6c-0.1,2.1,0.5,5.4,3.3,5.4
				c0.6,0,1-0.4,1.5-0.6c2.2-0.3,3,0.9,4.8,1.8c1.2,0.6,2.3,0.8,3.5,0.1c-0.2-0.1-0.6-0.2-0.8-0.4c0.8,5.3,7.4,9.2,6.3,14.7
				c-0.1,0.6,0.3,0.8,0.8,0.7c1.8-0.7,3.4-1.4,5.2-2.1c-0.2-0.1-0.6-0.2-0.8-0.4c1.5,4.1,3.9,8.1,8.6,8.5c0.7,0,0.7-1.2,0-1.2
				c-4.2-0.3-6.2-4.1-7.6-7.7c-0.1-0.4-0.5-0.5-0.8-0.4c-1.8,0.7-3.4,1.4-5.2,2.1c0.2,0.2,0.6,0.5,0.8,0.7c1.2-6.1-5.5-9.8-6.3-15.4
				c-0.1-0.4-0.6-0.6-0.8-0.4c-2.1,1.5-4.3-2.1-6.4-2.3c-0.5,0-0.8,0.1-1.3,0.2c-1.6,0.2-3.3,0-3.7-1.7c-0.5-2.1,1-5.5-1.8-6.6
				c-0.3-0.1-0.7-0.3-1.1-0.3c-0.6,0.2-1.1,0.4-1.7,0.5c-1.1,0-1.9-0.4-2.4-1.1c-1.6-1.6-1.5-4.1-2.3-6.2c-0.7-1.7-1.6-3.1-2.6-4.4
				c-1.4-1.7-2.3-1.2-4.4-1.3c0.2,0.2,0.3,0.5,0.6,0.7c1.9-5.9-4.1-10.7-9.5-10.7C351.3,107.1,351.3,108.3,352,108.3L352,108.3z"/>
		</g>
	</g>
	<g>
		<g>
			<path class="st12" d="M348.1,129.3c0.2,1.8,1.6,2.3,3.2,2.5c1.4,0.3,1.5,0,2.8,1.1c1.3,1.1,1,1.2,1.5,2.4
				c0.3,0.9,0.9,1.9,1.5,2.7c2.2,2.6,6,3.1,7.2,6.4c1,2.7,1,6.7,3,9c1.8,1.9,5.4,1.9,7.6,3.2c3,2,5.4,5.2,5.5,8.8
				c0.1,1.8-0.6,3.9,0.9,5.2c0.9,0.8,2.2,0.8,3.4,1.1c2.3,0.8,3.9,2.6,4.2,4.9c0.1,0.7,1.3,0.5,1.2-0.3c-0.3-2.1-1.6-3.9-3.4-5
				c-1.4-0.7-3-0.8-4.2-1.7c-1.5-1.3-0.7-3.1-0.9-4.8c-0.5-4.7-4.1-8.7-8.4-10.3c-2.3-0.9-4.9-1.1-5.8-3.8c-0.5-1.8-1-3.5-1.5-5.4
				c-0.8-2.7-1-3.9-3.5-5c-2-0.9-3.8-2-5-3.9c-0.8-1.3-0.6-2.8-1.4-4.1c-1.1-1.9-6.4-1.2-6.6-3C349.2,128.7,348,128.6,348.1,129.3
				L348.1,129.3z"/>
		</g>
	</g>
	<g>
		<g>
			<path class="st12" d="M346.5,152.9c2-1.7,2.1,3.5,2.5,4.2c0.3,0.8,0.9,1.3,1.7,1.6c2.6,0.9,6.3-2.5,6.5,1.9
				c0.2,2.9-0.7,5,1.6,7.4c0.6,0.6,1.4,1,1.8,1.6c0.8,1.1,0.9,2.4,1.1,3.5c0.1,0.9,0.3,1.8,0.9,2.6c1.5,2.3,4.3,3.4,6.2,5.3
				c2.2,2.2,3,5.1,4.7,7.6c1.8,2.5,5,2.8,6.6,5.4c0.8,1.4,1.3,3.1,3.5,2.4c0.7-0.2,0.4-1.4-0.3-1.2c-1.7,0.5-2.3-3-3.1-3.8
				c-0.9-0.8-2.4-0.9-3.5-1.5c-2.9-1.7-3.6-5.4-5.4-8c-1.5-2.1-3.7-3.4-5.7-5.1c-2-1.6-2.4-2.9-2.7-5.3c-0.1-1.1-0.3-1.8-1-2.5
				c-1.5-1.7-3.2-2.4-3.5-5c-0.2-1.6,0.7-3.4,0.2-5c-0.3-1.7-1.6-2-3.1-2c-2.2,0.2-4.6,2-5.5-1.4c-0.2-1.1,0-1.9-0.8-2.8
				c-0.9-1.2-2.3-1.6-3.5-0.6C345.1,152.5,346,153.4,346.5,152.9L346.5,152.9z"/>
		</g>
	</g>
	<linearGradient id="SVGID_4_" gradientUnits="userSpaceOnUse" x1="320.0868" y1="232.2286" x2="416.3463" y2="186.0554">
		<stop  offset="0" style="stop-color:#FFFFFF;stop-opacity:0"/>
		<stop  offset="1" style="stop-color:#FFFFFF"/>
	</linearGradient>
	<polygon class="st17" points="346.6,102 307.5,228.9 366.5,327.5 374.6,301.2 	"/>
	<polygon class="st15" points="450.1,74.9 367.6,21.1 378.2,23.1 460.7,76.8 	"/>
	<path class="st13" d="M367.6,21.1L302.2,232l67,113.4l81-270.6L367.6,21.1z M366.5,327.5l-28.4-47.4c0,0,2.7-11.6-2.1-20
		c-4.8-8.3-7.9,3.3-7.9,3.3l-20.7-34.6l61.7-199.8l71,52.5L366.5,327.5z"/>
	<path class="st12" d="M335.8,268.6c0.4,3.7-0.7,7-2.4,7.1c-1.7,0.2-3.3-2.6-3.6-6.5c-0.4-3.7,0.7-7,2.4-7.1
		C333.8,262,335.4,264.8,335.8,268.6z"/>
</g>
<g>
	<g>
		<path class="st18" d="M216.3,298.5c-4.6-3.2-9.1-6.4-13.7-9.6c-0.2-0.7,0.3-1.1,1.3-1.5c5.1-1.9,10.2-3.9,15.3-5.9
			c1.1-0.4,2.2-0.3,3.1,0.3c4.2,2.9,8.4,5.9,12.6,8.8c1,0.7,0.7,1.4-0.3,1.8c-5.1,1.9-10.1,3.9-15.1,5.8
			C218.5,298.7,217.5,298.9,216.3,298.5z M211.7,289.5c0-0.1-0.1-0.1-0.2-0.2c-0.1-0.2,0.2-0.3,0.5-0.5c1.1-0.4,2.1-0.8,3.2-1.2
			c1.3-0.5,2.6-1,3.8-1.5c0.4-0.2,0.9-0.2,1.3,0.1c1.4,0.9,2.7,1.9,4,2.8c0.2,0.1,0.2,0.2-0.1,0.3c-0.4,0.2-0.8,0.3-1.2,0.5
			c-0.2,0.1-0.4,0.2-0.1,0.3c0.4,0.2,0.3,0.4-0.2,0.6c-1.2,0.5-2.5,0.9-3.7,1.4c-0.4,0.2-0.8,0.2-1.1-0.1c-1-0.7-2-1.4-3-2.1
			c-0.3-0.2-0.3-0.4,0.1-0.5c1.3-0.5,2.6-1,3.8-1.5c0.4-0.2,0.7-0.1,1,0.1c0.5,0.4,1.1,0.8,1.6,1.2c0.8,0.5,0.8,0.5,1.7,0.2
			c0.4-0.2,0.5-0.3,0.1-0.5c-1-0.7-1.9-1.4-2.9-2c-0.6-0.4-0.8-0.4-1.5-0.2c-2,0.8-4.1,1.6-6.1,2.4c-0.7,0.3-0.7,0.4-0.1,0.8
			c1.6,1.2,3.3,2.3,4.9,3.4c0.6,0.4,0.8,0.5,1.6,0.2c1.6-0.6,3.1-1.2,4.7-1.8c0.2-0.1,0.4-0.2,0.5-0.3c0.3-0.6,0.6-1.2,0.8-1.8
			c0.1-0.2,0.1-0.3-0.2-0.5c-1.5-1-2.9-2.1-4.4-3.1c-0.5-0.3-0.9-0.4-1.5-0.2c-2.7,1-5.3,2-7.9,3.1c-0.6,0.2-0.7,0.5-0.2,0.8
			c2.1,1.5,4.2,3,6.4,4.5c0.6,0.4,0.9,0.4,1.6,0.2c2-0.8,4.1-1.6,6.1-2.3c0.3-0.1,0.4-0.2,0.5-0.4c0.3-0.8,0.6-1.5,0.9-2.2
			c0.1-0.2,0-0.4-0.3-0.6c-1.7-1.2-3.4-2.4-5.2-3.6c-0.7-0.5-1.2-0.5-2.1-0.2c-3.1,1.2-6.3,2.4-9.4,3.6c-0.8,0.3-0.8,0.5-0.2,1
			c2.6,1.8,5.1,3.6,7.7,5.4c0.6,0.4,1.1,0.5,1.9,0.2c2.4-0.9,4.8-1.9,7.2-2.8c0.3-0.1,0.5-0.3,0.5-0.5c0.3-0.9,0.7-1.8,1-2.7
			c0.1-0.2,0-0.4-0.3-0.6c-2-1.4-4.1-2.8-6.1-4.3c-0.8-0.6-1.3-0.6-2.3-0.3c-3.6,1.4-7.1,2.8-10.7,4.1c-0.2,0.1-0.4,0.2-0.6,0.3
			c-0.5,0.2-0.5,0.6,0,0.8c0.3,0.2,0.6,0.4,1,0.6c2.7,1.9,5.4,3.8,8.1,5.7c0.8,0.5,1.3,0.6,2.3,0.2c2.8-1.1,5.6-2.2,8.4-3.2
			c0.3-0.1,0.4-0.2,0.5-0.4c0.4-1,0.8-2.1,1.2-3.1c0.1-0.2,0-0.3-0.2-0.5c-2.4-1.7-4.8-3.4-7.2-5.1c-0.8-0.5-1.5-0.6-2.4-0.2
			c-4.1,1.6-8.2,3.2-12.4,4.8c-1,0.4-1,0.7-0.2,1.3c3.3,2.3,6.6,4.7,10,7c0.8,0.6,1.4,0.6,2.4,0.3c3.5-1.3,6.9-2.7,10.4-4
			c1.7-0.6,2.7-1.3,2.8-2.4c0-0.2,0-0.4-0.2-0.5c-3.4-2.4-6.9-4.8-10.3-7.2c-0.8-0.6-1.1-0.6-2.2-0.2c-4.9,1.9-9.9,3.8-14.8,5.7
			c-1,0.4-1.1,0.6-0.2,1.2c4,2.8,7.9,5.6,11.9,8.4c0.8,0.5,1.2,0.6,2.1,0.2c3.5-1.3,7-2.7,10.5-4.1c1.4-0.6,2.9-1.1,4.3-1.7
			c0.4-0.2,0.7-0.4,0.5-0.7c-0.2,0.1-0.4,0.2-0.6,0.2c-4.7,1.8-9.5,3.7-14.2,5.5c-1.1,0.4-2,0.3-2.9-0.3c-3.5-2.4-6.9-4.9-10.4-7.3
			c-0.8-0.6-0.7-1.1,0.2-1.5c4.4-1.7,8.7-3.4,13.1-5c0.9-0.4,1.9-0.3,2.6,0.3c2.6,1.8,5.1,3.6,7.7,5.4c0.2,0.2,0.3,0.3,0.3,0.5
			c-0.4,1.1-0.8,2.2-1.2,3.3c-0.1,0.2-0.2,0.3-0.5,0.4c-3,1.2-6.1,2.3-9.1,3.5c-0.8,0.3-1.5,0.3-2.2-0.2c-3.2-2.2-6.4-4.5-9.5-6.7
			c-0.6-0.5-0.6-0.8,0.2-1.1c3.9-1.5,7.9-3,11.8-4.6c0.9-0.3,1.5-0.3,2.2,0.2c2.3,1.6,4.5,3.2,6.8,4.8c0.3,0.2,0.3,0.3,0.2,0.5
			c-0.4,1-0.7,2-1.1,2.9c-0.1,0.2-0.2,0.3-0.4,0.4c-2.7,1-5.3,2.1-8,3.1c-0.7,0.3-1.3,0.2-1.9-0.2c-2.8-2-5.6-3.9-8.4-5.9
			c-0.6-0.4-0.6-0.7,0.2-1c3.5-1.3,6.9-2.7,10.4-4c0.8-0.3,1.3-0.2,1.9,0.2c2,1.4,3.9,2.8,5.9,4.1c0.2,0.2,0.3,0.3,0.2,0.5
			c-0.4,0.8-0.7,1.7-1.1,2.5c-0.1,0.1-0.2,0.3-0.4,0.3c-2.3,0.9-4.6,1.8-6.8,2.6c-0.6,0.2-1.1,0.2-1.7-0.2c-2.4-1.7-4.8-3.4-7.2-5
			c-0.5-0.4-0.5-0.6,0.2-0.9c2.9-1.1,5.9-2.3,8.9-3.4c0.6-0.2,1.1-0.2,1.6,0.2c1.7,1.2,3.3,2.3,4.9,3.5c0.2,0.2,0.3,0.3,0.2,0.5
			c-0.3,0.6-0.6,1.3-0.9,2c-0.1,0.1-0.1,0.3-0.4,0.4c-1.9,0.7-3.8,1.5-5.7,2.2c-0.5,0.2-0.9,0.1-1.3-0.1
			C215.7,292.3,213.7,290.9,211.7,289.5z"/>
		<path class="st19" d="M211.7,289.5c2,1.4,4,2.8,6,4.2c0.4,0.3,0.9,0.3,1.3,0.1c1.9-0.7,3.8-1.5,5.7-2.2c0.2-0.1,0.3-0.2,0.4-0.4
			c0.3-0.7,0.6-1.3,0.9-2c0.1-0.2,0-0.3-0.2-0.5c-1.7-1.2-3.3-2.3-4.9-3.5c-0.5-0.4-1-0.4-1.6-0.2c-3,1.1-5.9,2.3-8.9,3.4
			c-0.6,0.2-0.7,0.5-0.2,0.9c2.4,1.7,4.8,3.4,7.2,5c0.5,0.4,1,0.4,1.7,0.2c2.3-0.9,4.6-1.8,6.8-2.6c0.2-0.1,0.4-0.2,0.4-0.3
			c0.3-0.8,0.7-1.7,1.1-2.5c0.1-0.2,0-0.3-0.2-0.5c-2-1.4-3.9-2.8-5.9-4.1c-0.6-0.4-1.2-0.5-1.9-0.2c-3.5,1.3-6.9,2.7-10.4,4
			c-0.8,0.3-0.8,0.6-0.2,1c2.8,2,5.6,3.9,8.4,5.9c0.6,0.4,1.2,0.5,1.9,0.2c2.7-1,5.3-2.1,8-3.1c0.2-0.1,0.4-0.2,0.4-0.4
			c0.4-1,0.7-2,1.1-2.9c0.1-0.2,0-0.4-0.2-0.5c-2.3-1.6-4.5-3.2-6.8-4.8c-0.7-0.5-1.3-0.6-2.2-0.2c-3.9,1.5-7.9,3-11.8,4.6
			c-0.8,0.3-0.9,0.7-0.2,1.1c3.2,2.2,6.4,4.5,9.5,6.7c0.7,0.5,1.3,0.6,2.2,0.2c3-1.2,6.1-2.3,9.1-3.5c0.3-0.1,0.5-0.2,0.5-0.4
			c0.4-1.1,0.8-2.2,1.2-3.3c0.1-0.2,0-0.3-0.3-0.5c-2.6-1.8-5.1-3.6-7.7-5.4c-0.8-0.5-1.7-0.6-2.6-0.3c-4.4,1.7-8.7,3.4-13.1,5
			c-1,0.4-1.1,0.9-0.2,1.5c3.5,2.4,6.9,4.9,10.4,7.3c0.9,0.6,1.8,0.7,2.9,0.3c4.7-1.8,9.5-3.7,14.2-5.5c0.2-0.1,0.4-0.1,0.6-0.2
			c0.2,0.4-0.1,0.6-0.5,0.7c-1.4,0.6-2.9,1.1-4.3,1.7c-3.5,1.4-7,2.7-10.5,4.1c-0.9,0.4-1.4,0.3-2.1-0.2c-4-2.8-8-5.6-11.9-8.4
			c-0.8-0.6-0.8-0.8,0.2-1.2c4.9-1.9,9.8-3.8,14.8-5.7c1-0.4,1.3-0.3,2.2,0.2c3.4,2.4,6.8,4.8,10.3,7.2c0.3,0.2,0.3,0.3,0.2,0.5
			c-0.2,1.1-1.2,1.8-2.8,2.4c-3.6,1.3-7,2.7-10.4,4c-1,0.4-1.6,0.3-2.4-0.3c-3.3-2.3-6.6-4.7-10-7c-0.8-0.6-0.7-0.9,0.2-1.3
			c4.1-1.6,8.2-3.2,12.4-4.8c1-0.4,1.6-0.3,2.4,0.2c2.4,1.7,4.8,3.4,7.2,5.1c0.2,0.2,0.3,0.3,0.2,0.5c-0.4,1-0.8,2.1-1.2,3.1
			c-0.1,0.2-0.2,0.3-0.5,0.4c-2.8,1.1-5.6,2.2-8.4,3.2c-0.9,0.4-1.5,0.3-2.3-0.2c-2.7-1.9-5.4-3.8-8.1-5.7c-0.3-0.2-0.6-0.4-1-0.6
			c-0.4-0.3-0.4-0.6,0-0.8c0.2-0.1,0.4-0.2,0.6-0.3c3.6-1.4,7.1-2.8,10.7-4.1c1-0.4,1.5-0.3,2.3,0.3c2,1.4,4,2.9,6.1,4.3
			c0.3,0.2,0.4,0.3,0.3,0.6c-0.4,0.9-0.7,1.8-1,2.7c-0.1,0.2-0.2,0.3-0.5,0.5c-2.4,0.9-4.8,1.9-7.2,2.8c-0.8,0.3-1.2,0.2-1.9-0.2
			c-2.6-1.8-5.1-3.6-7.7-5.4c-0.7-0.5-0.6-0.7,0.2-1c3.1-1.2,6.3-2.4,9.4-3.6c0.9-0.3,1.3-0.3,2.1,0.2c1.7,1.2,3.4,2.4,5.2,3.6
			c0.3,0.2,0.4,0.3,0.3,0.6c-0.3,0.7-0.7,1.5-0.9,2.2c-0.1,0.2-0.2,0.3-0.5,0.4c-2,0.8-4.1,1.6-6.1,2.3c-0.7,0.3-1.1,0.2-1.6-0.2
			c-2.1-1.5-4.3-3-6.4-4.5c-0.5-0.4-0.5-0.6,0.2-0.8c2.6-1,5.3-2,7.9-3.1c0.6-0.2,1-0.2,1.5,0.2c1.5,1,2.9,2.1,4.4,3.1
			c0.2,0.2,0.2,0.3,0.2,0.5c-0.3,0.6-0.5,1.2-0.8,1.8c-0.1,0.2-0.3,0.2-0.5,0.3c-1.6,0.6-3.1,1.2-4.7,1.8c-0.8,0.3-1,0.3-1.6-0.2
			c-1.6-1.1-3.3-2.3-4.9-3.4c-0.6-0.4-0.6-0.5,0.1-0.8c2-0.8,4.1-1.6,6.1-2.4c0.7-0.3,1-0.2,1.5,0.2c1,0.7,1.9,1.4,2.9,2
			c0.4,0.2,0.3,0.4-0.1,0.5c-0.9,0.3-0.9,0.4-1.7-0.2c-0.5-0.4-1.1-0.8-1.6-1.2c-0.3-0.2-0.6-0.3-1-0.1c-1.3,0.5-2.5,1-3.8,1.5
			c-0.4,0.2-0.4,0.3-0.1,0.5c1,0.7,2,1.4,3,2.1c0.4,0.3,0.7,0.3,1.1,0.1c1.2-0.5,2.4-1,3.7-1.4c0.4-0.2,0.6-0.3,0.2-0.6
			c-0.3-0.1-0.1-0.2,0.1-0.3c0.4-0.2,0.8-0.3,1.2-0.5c0.2-0.1,0.3-0.2,0.1-0.3c-1.3-0.9-2.7-1.9-4-2.8c-0.4-0.3-0.9-0.2-1.3-0.1
			c-1.3,0.5-2.6,1-3.8,1.5c-1.1,0.4-2.1,0.8-3.2,1.2c-0.3,0.1-0.6,0.2-0.5,0.5C211.6,289.4,211.6,289.5,211.7,289.5z"/>
		<path class="st20" d="M211.7,289.5c-0.1-0.1-0.2-0.1-0.2-0.2C211.7,289.4,211.8,289.5,211.7,289.5z"/>
	</g>
</g>
<g>
	<g>
		<path d="M231.8,273.6c0.1,0.2,0,0.4-0.5,0.6c-0.5,0.2-1.1,0.3-1.7,0.4c-0.6,0-1.3-0.1-2-0.3c-0.3-0.1-0.5-0.2-0.8-0.3
			c-0.5,0.2-0.8,0.3-1.4,0.5c-0.3-0.1-0.4-0.2-0.7-0.4c1.9-0.5,2.8-0.8,4.4-1.9c0.5,0.3,0.8,0.4,1.4,0.7
			C231.3,273.2,231.7,273.4,231.8,273.6z M229.6,274.2c0.3,0,0.6-0.1,0.9-0.2s0.4-0.2,0.3-0.4c-0.1-0.1-0.4-0.2-0.8-0.4
			c-0.3-0.1-0.5-0.2-0.7-0.3c-0.6,0.3-1,0.5-1.7,0.8c0.3,0.1,0.5,0.2,0.9,0.3C228.9,274.1,229.3,274.2,229.6,274.2z"/>
		<path d="M236.3,276.4c-0.7,0.3-1.4,0.3-2.3,0c-0.2,0.6-0.3,1-0.6,1.6c-0.4-0.2-0.6-0.4-0.9-0.6c0.2-0.6,0.3-0.9,0.5-1.5
			c-0.4-0.2-0.6-0.3-1.1-0.5c-0.6,0.3-1,0.6-1.7,0.9c-0.3-0.1-0.5-0.2-0.9-0.4c2-1.1,2.9-1.6,4.3-2.1c0.8,0.3,1.2,0.4,1.9,0.8
			c0.8,0.3,1.2,0.6,1.3,0.9C236.9,275.9,236.7,276.2,236.3,276.4z M234.7,276c0.3,0,0.6,0,0.8-0.1c0.3-0.1,0.4-0.3,0.3-0.4
			c-0.1-0.1-0.3-0.3-0.8-0.5c-0.4-0.2-0.6-0.3-1.1-0.5c-0.5,0.2-0.8,0.3-1.4,0.6c0.4,0.2,0.7,0.3,1.1,0.5
			C234.1,275.8,234.5,276,234.7,276z"/>
		<path d="M238.4,280.8c-0.9-0.1-1.7-0.3-2.3-0.7c-0.6-0.4-0.9-0.9-0.9-1.4c0-0.5,0.4-1,1-1.3c0.6-0.3,1.3-0.4,2.1-0.3
			c0.8,0.1,1.5,0.4,2.1,0.8c0.6,0.4,1,0.9,1,1.4c0.1,0.5-0.2,0.9-0.8,1.2C240.1,280.7,239.3,280.9,238.4,280.8z M240.5,279.1
			c0-0.3-0.2-0.6-0.6-0.9c-0.4-0.3-0.9-0.5-1.4-0.5c-0.6-0.1-1,0-1.5,0.2s-0.7,0.5-0.7,0.9c0,0.4,0.1,0.7,0.6,1
			c0.4,0.3,0.9,0.4,1.6,0.5c0.6,0,1.1,0,1.6-0.3S240.5,279.5,240.5,279.1z"/>
		<path d="M246.4,282.4c0,0.5-0.3,1-0.9,1.4c-0.6,0.4-1.3,0.6-2.1,0.6c-0.8-0.1-1.6-0.4-2.4-1.1c-0.6-0.4-0.9-0.6-1.5-1.1
			c1.8-1.1,2.6-1.4,4.2-2.2c0.6,0.4,0.9,0.6,1.5,0.9C245.9,281.4,246.3,281.9,246.4,282.4z M244.8,283.2c1-0.6,0.9-1.2-0.2-2
			c-0.3-0.2-0.4-0.3-0.7-0.5c-1.1,0.6-1.7,0.8-2.9,1.5c0.3,0.2,0.5,0.4,0.8,0.6c0.5,0.4,1.1,0.6,1.6,0.7S244.3,283.5,244.8,283.2z"
			/>
		<path d="M246,286c0,0.3,0.1,0.6,0.4,0.8c0.3,0.2,0.6,0.4,1,0.4c0.4,0,0.7-0.1,1.1-0.3c0.9-0.6,1.4-0.9,2.3-1.5
			c0.3,0.2,0.4,0.4,0.7,0.6c-1,0.6-1.5,1-2.4,1.5c-0.6,0.4-1.1,0.5-1.7,0.4c-0.6,0-1.1-0.2-1.6-0.6c-0.5-0.4-0.7-0.8-0.7-1.2
			c0-0.5,0.3-0.9,0.9-1.3c0.9-0.6,1.4-1,2.3-1.6c0.3,0.2,0.4,0.3,0.6,0.5c-0.9,0.6-1.4,0.9-2.3,1.6C246.2,285.4,246,285.7,246,286z"
			/>
		<path d="M250.9,290.4c0.3,0.2,0.5,0.4,0.8,0.5c0.3,0.1,0.6,0.2,1,0.2c0,0.3,0,0.4,0,0.7c-1-0.1-1.8-0.4-2.4-0.9
			c-0.7-0.5-1-1.1-1-1.7c0-0.6,0.3-1,0.9-1.4c0.6-0.3,1.4-0.5,2.3-0.4c0.9,0.1,1.6,0.5,2.3,1.1c0.7,0.6,1,1.1,1,1.7
			c-0.4-0.1-0.6-0.1-1-0.2c0-0.3-0.1-0.5-0.2-0.7c-0.1-0.2-0.3-0.4-0.5-0.6c-0.4-0.4-1-0.6-1.5-0.7c-0.6-0.1-1.1,0-1.5,0.2
			c-0.4,0.2-0.6,0.5-0.6,1C250.3,289.7,250.5,290,250.9,290.4z"/>
		<path d="M258.2,292.2c-1.4,0.7-2.2,1.1-3.6,1.8c-0.3-0.2-0.4-0.3-0.7-0.5c1.4-0.8,2.1-1.2,3.6-1.9c-0.5-0.4-0.8-0.6-1.3-1.1
			c0.3-0.1,0.4-0.2,0.7-0.3c1.4,1.1,2.1,1.6,3.4,2.5c-0.3,0.1-0.4,0.2-0.7,0.3C259,292.7,258.7,292.6,258.2,292.2z"/>
	</g>
</g>
</svg>
