<?xml version="1.0" encoding="utf-8"?>
<!-- Generator: Adobe Illustrator 22.0.1, SVG Export Plug-In . SVG Version: 6.00 Build 0)  -->
<svg version="1.1" id="Layer_1" xmlns="http://www.w3.org/2000/svg" xmlns:xlink="http://www.w3.org/1999/xlink" x="0px" y="0px"
	 viewBox="0 0 157 193" style="enable-background:new 0 0 157 193;" xml:space="preserve">
<style type="text/css">
	.st0{fill:none;}
	.st1{clip-path:url(#SVGID_2_);fill:#054A91;}
	.st2{fill:url(#SVGID_3_);}
	.st3{fill:none;stroke:#FFFFFF;stroke-width:0.5;stroke-miterlimit:10;}
	.st4{fill:#FFFFFF;stroke:#4CB6AC;stroke-width:0.5;stroke-miterlimit:10;}
</style>
<g>
	<title>background</title>
	<rect id="canvas_background" x="-1" y="-1" class="st0" width="159" height="195"/>
</g>
<g>
	<title>Layer 1</title>
	<g id="svg_1">
		<g>
			<defs>
				<path id="SVGID_1_" d="M30.1,185.2c-1.5,1.8-3.4,3.3-5.4,4.4c-2.1,1.2-4.5,1.8-7.2,1.8c-4.2,0-7.8-1.5-11-4.4
					c-3.3-2.9-4.9-7.7-5-14.2c0.1-6.6,1.8-11.4,5-14.4c3.1-2.9,6.8-4.4,11-4.3c2.7,0,5.1,0.6,7.2,1.8c2.1,1.1,3.9,2.7,5.4,4.6
					l-5.2,4.8c-1.8-2.5-4.2-3.7-7.2-3.8c-6-0.1-9.1,3.7-9.2,11.4c0.1,7.6,3.1,11.4,9.2,11.3c3,0,5.4-1.3,7.2-3.8L30.1,185.2
					L30.1,185.2z M36.1,139.9h7.1v41.8c0,1.7,0.9,2.5,2.7,2.5h2.5v6.9h-3.2c-2.6,0-4.7-0.7-6.4-2c-1.8-1.4-2.6-3.6-2.6-6.8v-42.4
					H36.1z M73.1,187.9H73c-0.7,1.2-1.7,2.2-3.1,2.7c-1.4,0.6-3.2,0.9-5.6,0.9c-3.9,0-7-1.1-9.1-3.2c-2.2-2.1-3.4-4.7-3.4-7.9
					c0-3.1,1-5.6,2.9-7.6c1.9-2.1,4.8-3.1,8.6-3.2h9.8v-3.8c0-3.2-2.4-4.8-7.2-4.7c-1.8,0-3.2,0.2-4.2,0.6c-1.1,0.4-1.9,1.2-2.5,2.3
					l-5.6-4.4c2.7-3.6,6.7-5.4,11.9-5.3c4.4,0,8,0.8,10.6,2.6c2.6,1.8,4,5,4,9.4v24.9H73v-3.3H73.1L73.1,187.9z M73.1,175.6h-8.5
					c-4.1,0.1-6.2,1.6-6.1,4.4c0,1.2,0.5,2.3,1.6,3.2c1,1,2.7,1.4,5.1,1.4c3,0,5.1-0.3,6.3-1.1c1.1-0.8,1.7-2.5,1.7-5.3v-2.6H73.1z
					 M90.5,154.7h7.1v3.9h0.1c2.3-2.9,5.4-4.3,9.2-4.3c2.8,0,5.3,1,7.4,2.8l-5.2,6.3c-1.5-1.2-3-1.8-4.7-1.8c-1.8,0-3.4,0.6-4.7,1.8
					c-1.5,1.2-2.2,3.1-2.2,5.8v21.9h-7.1v-36.4L90.5,154.7L90.5,154.7z M118.5,139.9h7.1v31.8h0.1l13.6-17.1h8.5l-12.2,14.2
					l13.8,22.2h-8.9l-9.4-17l-5.6,6.5V191h-7.1v-51.1H118.5z"/>
			</defs>
			<clipPath id="SVGID_2_">
				<use xlink:href="#SVGID_1_"  style="overflow:visible;"/>
			</clipPath>
			<rect id="svg_3" x="-11" y="118.3" class="st1" width="188.7" height="95.2"/>
		</g>
	</g>
	<g>
		<g>
			<g>
				
					<linearGradient id="SVGID_3_" gradientUnits="userSpaceOnUse" x1="23.1" y1="125.807" x2="133.9" y2="125.807" gradientTransform="matrix(1 0 0 -1 0 194)">
					<stop  offset="0" style="stop-color:#4CB6AC"/>
					<stop  offset="1" style="stop-color:#007992"/>
				</linearGradient>
				<path class="st2" d="M74.5,87.9c-7.2-14-22.2-11.2-27.5-10.2c3.3-7.4,13.9-11.5,13.9-11.5c4.8-11.4,15.8-19,28.9-16.9
					c15.4,2.6,20.3,13.8,31.9,17.5c0.1,0,0.1,0,0.2,0.1c6.8,2.1,13.4-4.1,11.8-11c-3.9-16.9-15.5-31.9-32.7-39.2
					c-28.4-12-61.4,1.4-73.4,29.7c-12.1,28.7,1.5,61.7,30.2,73.5c13.6,5.6,28.1,5.5,40.9,0.7C86.5,120.5,81.3,100.8,74.5,87.9"/>
			</g>
		</g>
		<g>
			<path class="st3" d="M50.9,76.9c-0.5,0.7-0.9,1.6-1,2.6"/>
			<path class="st3" d="M49.9,79.6c-0.1,0.8,0,1.5,0.2,2.2"/>
			<path class="st3" d="M54.3,75.5c-1.3-0.3-2.6,0.3-3.4,1.4"/>
			<path class="st3" d="M55,85.5c1.3-0.5,2.4-2,2.6-4.1c0-0.4,0.1-0.7,0-1"/>
			<path class="st4" d="M54,81.1l-2.1,6.3l6.7,13.8l9-4.7l-6.7-12.7L54,81.1z M56.5,86.2c-0.8,0.4-1.8,0-2-0.6
				c-0.4-0.6,0-1.4,0.8-1.8c0.7-0.4,1.8,0,2,0.6C57.7,85,57.3,85.8,56.5,86.2z"/>
			<path class="st3" d="M53.2,85.6c0.6,0.2,1.2,0.1,1.8-0.1"/>
			<path class="st4" d="M56.6,87.9c0.4-2.5-1.8-4.9-4.7-5.3c-2.9-0.4-5.6,1.3-6,3.8c-0.2,1.4,0.4,2.7,1.5,3.8L43.2,103l4.9,1.5
				l4.2-12.7C54.6,91.4,56.4,89.9,56.6,87.9z M51.9,86.7c-0.8-0.1-1.4-0.8-1.3-1.5c0.1-0.8,0.9-1.2,1.7-1.1c0.8,0.1,1.4,0.8,1.3,1.6
				C53.5,86.4,52.7,86.8,51.9,86.7z"/>
			<path class="st3" d="M57.6,80.4c-0.2-2.4-1.4-4.5-3.4-4.9l0,0l-0.1,0.1"/>
			<path class="st3" d="M50.1,81.9c0.2,0.7,0.4,1.4,0.8,1.9"/>
			<path class="st3" d="M50.9,83.8c0.6,0.9,1.4,1.6,2.3,1.9"/>
		</g>
	</g>
</g>
</svg>
