<?xml version="1.0" encoding="utf-8"?>
<!-- Generator: Adobe Illustrator 22.0.1, SVG Export Plug-In . SVG Version: 6.00 Build 0)  -->
<svg version="1.1" id="Layer_1" xmlns="http://www.w3.org/2000/svg" xmlns:xlink="http://www.w3.org/1999/xlink" x="0px" y="0px"
	 viewBox="0 0 295 134" style="enable-background:new 0 0 295 134;" xml:space="preserve">
<style type="text/css">
	.st0{fill:none;}
	.st1{clip-path:url(#SVGID_2_);fill:#054A91;}
	.st2{fill:url(#SVGID_3_);}
	.st3{fill:none;stroke:#FFFFFF;stroke-width:0.5;stroke-miterlimit:10;}
	.st4{fill:#FFFFFF;stroke:#4CB6AC;stroke-width:0.5;stroke-miterlimit:10;}
</style>
<g>
	<title>background</title>
	<rect id="canvas_background" x="-1" y="-1" class="st0" width="297" height="136"/>
</g>
<g>
	<title>Layer 1</title>
	<g id="svg_1">
		<g>
			<defs>
				<path id="SVGID_1_" d="M164.5,80.4c-1.5,1.8-3.4,3.3-5.4,4.4c-2.1,1.2-4.5,1.8-7.2,1.8c-4.2,0-7.8-1.5-11-4.4
					c-3.3-2.9-4.9-7.7-5-14.2c0.1-6.6,1.8-11.4,5-14.4c3.1-2.9,6.8-4.4,11-4.3c2.7,0,5.1,0.6,7.2,1.8c2.1,1.1,3.9,2.7,5.4,4.6
					l-5.2,4.8c-1.8-2.5-4.2-3.7-7.2-3.8c-6-0.1-9.1,3.7-9.2,11.4c0.1,7.6,3.1,11.4,9.2,11.3c3,0,5.4-1.3,7.2-3.8L164.5,80.4
					L164.5,80.4z M170.5,35.1h7.1v41.8c0,1.7,0.9,2.5,2.7,2.5h2.5v6.9h-3.2c-2.6,0-4.7-0.7-6.4-2c-1.8-1.4-2.6-3.6-2.6-6.8V35.1
					H170.5z M207.5,83.1h-0.1c-0.7,1.2-1.7,2.2-3.1,2.7c-1.4,0.6-3.2,0.9-5.6,0.9c-3.9,0-7-1.1-9.1-3.2c-2.2-2.1-3.4-4.7-3.4-7.9
					c0-3.1,1-5.6,2.9-7.6c1.9-2.1,4.8-3.1,8.6-3.2h9.8V61c0-3.2-2.4-4.8-7.2-4.7c-1.8,0-3.2,0.2-4.2,0.6c-1.1,0.4-1.9,1.2-2.5,2.3
					l-5.6-4.4c2.7-3.6,6.7-5.4,11.9-5.3c4.4,0,8,0.8,10.6,2.6c2.6,1.8,4,5,4,9.4v24.9h-7.1v-3.3H207.5L207.5,83.1z M207.5,70.8H199
					c-4.1,0.1-6.2,1.6-6.1,4.4c0,1.2,0.5,2.3,1.6,3.2c1,1,2.7,1.4,5.1,1.4c3,0,5.1-0.3,6.3-1.1c1.1-0.8,1.7-2.5,1.7-5.3v-2.6H207.5z
					 M224.9,49.9h7.1v3.9h0.1c2.3-2.9,5.4-4.3,9.2-4.3c2.8,0,5.3,1,7.4,2.8l-5.2,6.3c-1.5-1.2-3-1.8-4.7-1.8c-1.8,0-3.4,0.6-4.7,1.8
					c-1.5,1.2-2.2,3.1-2.2,5.8v21.9h-7.1V49.9L224.9,49.9L224.9,49.9z M252.9,35.1h7.1v31.8h0.1l13.6-17.1h8.5L270,64l13.8,22.2
					h-8.9l-9.4-17l-5.6,6.5v10.5h-7.1V35.1H252.9z"/>
			</defs>
			<clipPath id="SVGID_2_">
				<use xlink:href="#SVGID_1_"  style="overflow:visible;"/>
			</clipPath>
			<rect id="svg_3" x="123.4" y="13.5" class="st1" width="188.7" height="95.2"/>
		</g>
	</g>
	<g>
		<g>
			<g>
				
					<linearGradient id="SVGID_3_" gradientUnits="userSpaceOnUse" x1="12.9636" y1="69" x2="117" y2="69" gradientTransform="matrix(1 0 0 -1 0 136)">
					<stop  offset="0" style="stop-color:#4CB6AC"/>
					<stop  offset="1" style="stop-color:#007992"/>
				</linearGradient>
				<path class="st2" d="M61.3,85.5c-6.8-13.2-20.9-10.5-25.8-9.6c3.1-7,13-10.8,13-10.8c4.5-10.7,14.8-17.8,27.1-15.8
					c14.4,2.4,19.1,12.9,30,16.4c0.1,0,0.1,0,0.2,0.1c6.4,2,12.6-3.8,11.1-10.4c-3.6-15.9-14.6-29.9-30.7-36.8
					C59.4,7.3,28.4,19.9,17.1,46.5c-11.4,26.9,1.4,57.9,28.3,69c12.8,5.3,26.4,5.1,38.4,0.7C72.5,116.1,67.6,97.6,61.3,85.5"/>
			</g>
		</g>
		<g>
			<path class="st3" d="M39.1,75.2c-0.5,0.7-0.8,1.5-0.9,2.5"/>
			<path class="st3" d="M38.2,77.8c-0.1,0.7,0,1.4,0.2,2.1"/>
			<path class="st3" d="M42.2,73.9c-1.2-0.2-2.4,0.2-3.2,1.3"/>
			<path class="st3" d="M43,83.2c1.2-0.5,2.2-1.9,2.4-3.8c0-0.3,0.1-0.7,0-0.9"/>
			<path class="st4" d="M42,79.2L40,85L46.3,98l8.5-4.4l-6.3-11.9L42,79.2z M44.4,83.9c-0.7,0.3-1.7,0-1.9-0.6
				c-0.3-0.6,0-1.3,0.7-1.7c0.7-0.3,1.7,0,1.9,0.6C45.4,82.8,45.1,83.6,44.4,83.9z"/>
			<path class="st3" d="M41.2,83.3c0.6,0.2,1.2,0.1,1.7-0.1"/>
			<path class="st4" d="M44.5,85.5c0.3-2.3-1.7-4.6-4.4-5c-2.7-0.4-5.3,1.2-5.6,3.6c-0.2,1.3,0.4,2.6,1.4,3.6l-4,12l4.6,1.4l4-11.9
				C42.5,88.8,44.2,87.4,44.5,85.5z M40,84.4c-0.7-0.1-1.3-0.7-1.2-1.4c0.1-0.7,0.8-1.2,1.6-1.1c0.7,0.1,1.3,0.7,1.2,1.5
				C41.5,84,40.7,84.5,40,84.4z"/>
			<path class="st3" d="M45.4,78.4c-0.2-2.2-1.3-4.2-3.1-4.6l0,0l-0.1,0.1"/>
			<path class="st3" d="M38.3,79.8c0.2,0.7,0.4,1.3,0.7,1.8"/>
			<path class="st3" d="M39.1,81.6c0.6,0.8,1.3,1.5,2.2,1.7"/>
		</g>
	</g>
</g>
</svg>
