<?xml version="1.0" encoding="utf-8"?>
<!-- Generator: Adobe Illustrator 22.0.1, SVG Export Plug-In . SVG Version: 6.00 Build 0)  -->
<svg version="1.1" id="Layer_1" xmlns="http://www.w3.org/2000/svg" xmlns:xlink="http://www.w3.org/1999/xlink" x="0px" y="0px"
	 viewBox="0 0 792 612" style="enable-background:new 0 0 792 612;" xml:space="preserve">
<style type="text/css">
	.st0{clip-path:url(#SVGID_2_);fill:#054A91;}
	.st1{fill:url(#SVGID_3_);}
	.st2{fill:none;stroke:#FFFFFF;stroke-width:0.5;stroke-miterlimit:10;}
	.st3{fill:#FFFFFF;stroke:#4CB6AC;stroke-width:0.5;stroke-miterlimit:10;}
</style>
<g>
	<g>
		<defs>
			<path id="SVGID_1_" d="M349.1,375.4c-1.5,1.8-3.4,3.3-5.4,4.4c-2.1,1.2-4.5,1.8-7.2,1.8c-4.2,0-7.8-1.5-11-4.4
				c-3.3-2.9-4.9-7.7-5-14.2c0.1-6.6,1.8-11.4,5-14.4c3.1-2.9,6.8-4.4,11-4.3c2.7,0,5.1,0.6,7.2,1.8c2.1,1.1,3.9,2.7,5.4,4.6
				l-5.2,4.8c-1.8-2.5-4.2-3.7-7.2-3.8c-6-0.1-9.1,3.7-9.2,11.4c0.1,7.6,3.1,11.4,9.2,11.3c3,0,5.4-1.3,7.2-3.8L349.1,375.4z
				 M355.1,330.1h7.1v41.8c0,1.7,0.9,2.5,2.7,2.5h2.5v6.9h-3.2c-2.6,0-4.7-0.7-6.4-2c-1.8-1.4-2.6-3.6-2.6-6.8v-42.4H355.1z
				 M392.1,378.1H392c-0.7,1.2-1.7,2.2-3.1,2.7c-1.4,0.6-3.2,0.9-5.6,0.9c-3.9,0-7-1.1-9.1-3.2c-2.2-2.1-3.4-4.7-3.4-7.9
				c0-3.1,1-5.6,2.9-7.6c1.9-2.1,4.8-3.1,8.6-3.2h9.8V356c0-3.2-2.4-4.8-7.2-4.7c-1.8,0-3.2,0.2-4.2,0.6c-1.1,0.4-1.9,1.2-2.5,2.3
				l-5.6-4.4c2.7-3.6,6.7-5.4,11.9-5.3c4.4,0,8,0.8,10.6,2.6s4,5,4,9.4v24.9H392v-3.3H392.1z M392.1,365.8h-8.5
				c-4.1,0.1-6.2,1.6-6.1,4.4c0,1.2,0.5,2.3,1.6,3.2c1,1,2.7,1.4,5.1,1.4c3,0,5.1-0.3,6.3-1.1c1.1-0.8,1.7-2.5,1.7-5.3v-2.6H392.1z
				 M409.5,344.9h7.1v3.9h0.1c2.3-2.9,5.4-4.3,9.2-4.3c2.8,0,5.3,1,7.4,2.8l-5.2,6.3c-1.5-1.2-3-1.8-4.7-1.8c-1.8,0-3.4,0.6-4.7,1.8
				c-1.5,1.2-2.2,3.1-2.2,5.8v21.9h-7.1v-36.4H409.5z M437.5,330.1h7.1v31.8h0.1l13.6-17.1h8.5L454.6,359l13.8,22.2h-8.9l-9.4-17
				l-5.6,6.5v10.5h-7.1v-51.1H437.5z"/>
		</defs>
		<clipPath id="SVGID_2_">
			<use xlink:href="#SVGID_1_"  style="overflow:visible;"/>
		</clipPath>
		<rect x="308" y="308.5" class="st0" width="188.7" height="95.2"/>
	</g>
</g>
<g>
	<g>
		<g>
			
				<linearGradient id="SVGID_3_" gradientUnits="userSpaceOnUse" x1="333.1935" y1="354.5791" x2="458.7702" y2="354.5791" gradientTransform="matrix(1 0 0 -1 0 612)">
				<stop  offset="0" style="stop-color:#4CB6AC"/>
				<stop  offset="1" style="stop-color:#007992"/>
			</linearGradient>
			<path class="st1" d="M391.5,279.7c-8.2-15.9-25.2-12.7-31.2-11.6c3.7-8.4,15.7-13,15.7-13c5.4-12.9,17.9-21.5,32.7-19.1
				c17.4,2.9,23,15.6,36.2,19.8c0.1,0,0.1,0,0.2,0.1c7.7,2.4,15.2-4.6,13.4-12.5c-4.4-19.2-17.6-36.1-37.1-44.4
				c-32.2-13.6-69.6,1.6-83.2,33.7c-13.7,32.5,1.7,69.9,34.2,83.3c15.4,6.4,31.9,6.2,46.4,0.8C405.1,316.7,399.1,294.4,391.5,279.7"
				/>
		</g>
	</g>
	<g>
		<path class="st2" d="M364.7,267.3c-0.6,0.8-1,1.8-1.1,3"/>
		<path class="st2" d="M363.6,270.4c-0.1,0.9,0,1.7,0.2,2.5"/>
		<path class="st2" d="M368.5,265.7c-1.5-0.3-2.9,0.3-3.9,1.6"/>
		<path class="st2" d="M369.4,277c1.5-0.6,2.7-2.3,2.9-4.6c0-0.4,0.1-0.8,0-1.1"/>
		<path class="st3" d="M368.2,272.1l-2.4,7.1l7.6,15.6l10.2-5.3l-7.6-14.4L368.2,272.1z M371.1,277.8c-0.9,0.4-2,0-2.3-0.7
			c-0.4-0.7,0-1.6,0.9-2c0.8-0.4,2,0,2.3,0.7C372.4,276.5,372,277.4,371.1,277.8z"/>
		<path class="st2" d="M367.3,277.1c0.7,0.2,1.4,0.1,2-0.1"/>
		<path class="st3" d="M371.2,279.8c0.4-2.8-2-5.5-5.3-6s-6.4,1.5-6.8,4.3c-0.2,1.6,0.5,3.1,1.7,4.3l-4.8,14.5l5.6,1.7l4.8-14.4
			C368.9,283.7,370.9,282,371.2,279.8z M365.8,278.4c-0.9-0.1-1.6-0.9-1.5-1.7c0.1-0.9,1-1.4,1.9-1.3s1.6,0.9,1.5,1.8
			C367.6,278,366.7,278.5,365.8,278.4z"/>
		<path class="st2" d="M372.3,271.2c-0.2-2.7-1.6-5.1-3.8-5.6l0,0l-0.1,0.1"/>
		<path class="st2" d="M363.8,272.9c0.2,0.8,0.5,1.6,0.9,2.2"/>
		<path class="st2" d="M364.7,275.1c0.7,1,1.6,1.8,2.6,2.1"/>
	</g>
</g>
</svg>
