<?xml version="1.0" encoding="utf-8"?>
<!-- Generator: Adobe Illustrator 20.1.0, SVG Export Plug-In . SVG Version: 6.00 Build 0)  -->
<svg version="1.1" id="Layer_1" xmlns="http://www.w3.org/2000/svg" xmlns:xlink="http://www.w3.org/1999/xlink" x="0px" y="0px"
	 viewBox="0 0 600 300" style="enable-background:new 0 0 600 300;" xml:space="preserve">
<style type="text/css">
	.st0{font-family:'ProximaNovaA-Thin';}
	.st1{font-size:12px;}
	.st2{letter-spacing:2;}
	.st3{fill:#FFFFFF;}
	.st4{fill:none;stroke:#E6E7E8;stroke-miterlimit:10;}
	.st5{fill:none;stroke:#E6E7E8;stroke-miterlimit:10;stroke-dasharray:2.9868,2.9868;}
	.st6{opacity:0.66;fill:#CBC5C1;}
	.st7{fill:#B37C57;}
	.st8{fill:#FFFFFF;stroke:#A7A9AC;stroke-miterlimit:10;}
	.st9{fill:none;stroke:#D1D3D4;stroke-miterlimit:10;}
	.st10{fill:none;stroke:#D1D3D4;stroke-miterlimit:10;stroke-dasharray:2.9868,2.9868;}
	.st11{fill:#FFFFFF;stroke:#000000;stroke-miterlimit:10;}
	.st12{fill:#FFFFFF;stroke:#4C586F;stroke-miterlimit:10;}
	.st13{font-family:'ProximaNovaA-Extrabld';}
	.st14{font-family:'ProximaNovaA-Semibold';}
	.st15{fill:#BCBEC0;}
	.st16{font-size:9px;}
</style>
<text transform="matrix(1 0 0 1 54 69.6392)"><tspan x="0" y="0" class="st0 st1 st2">1</tspan><tspan x="6.2" y="0" class="st0 st1">K</tspan></text>
<g>
	<g>
		<line class="st3" x1="527" y1="147.3" x2="73" y2="147.3"/>
		<g>
			<line class="st4" x1="527" y1="147.3" x2="525.5" y2="147.3"/>
			<line class="st5" x1="522.5" y1="147.3" x2="76" y2="147.3"/>
			<line class="st4" x1="74.5" y1="147.3" x2="73" y2="147.3"/>
		</g>
	</g>
	<path class="st6" d="M221.3,228.9v-54.2c0-5.4-2.4-7.7-7.7-7.7h-8.8c-5.4,0-7.7,2.4-7.7,7.7v54.2H221.3z"/>
	<path class="st6" d="M524,228.9v-54.2c0-5.4-2.4-7.7-7.7-7.7h-8.8c-5.4,0-7.7,2.4-7.7,7.7v54.2H524z"/>
	<path class="st6" d="M191,228.9v-11.2c0-5.4-2.4-7.7-7.7-7.7h-8.8c-5.4,0-7.7,2.4-7.7,7.7v11.2H191z"/>
	<path class="st6" d="M160.8,228.9v-15.2c0-5.4-2.4-7.7-7.7-7.7h-8.8c-5.4,0-7.7,2.4-7.7,7.7v15.2H160.8z"/>
	<path class="st6" d="M130.5,228.9v-4.2c0-5.4-2.4-7.7-7.7-7.7H114c-5.4,0-7.7,2.4-7.7,7.7v4.2H130.5z"/>
	<path class="st6" d="M251.6,228.9v-63.1c0-5.4-2.4-7.7-7.7-7.7H235c-5.4,0-7.7,2.4-7.7,7.7v63.1H251.6z"/>
	<path class="st6" d="M342.4,228.9V143c0-5.4-2.4-7.7-7.7-7.7h-8.8c-5.4,0-7.7,2.4-7.7,7.7v85.9H342.4z"/>
	<path class="st6" d="M463.4,228.9V138c0-5.4-2.4-7.7-7.7-7.7h-8.8c-5.4,0-7.7,2.4-7.7,7.7v90.9H463.4z"/>
	<path class="st6" d="M402.9,228.9V123.2c0-5.4-2.4-7.7-7.7-7.7h-8.8c-5.4,0-7.7,2.4-7.7,7.7v105.7H402.9z"/>
	<path class="st6" d="M281.8,228.9V131c0-5.4-2.4-7.7-7.7-7.7h-8.8c-5.4,0-7.7,2.4-7.7,7.7v97.9H281.8z"/>
	<path class="st6" d="M372.6,228.9V114.3c0-5.4-2.4-7.7-7.7-7.7h-8.8c-5.4,0-7.7,2.4-7.7,7.7v114.6H372.6z"/>
	<path class="st7" d="M433.2,228.9V106.6c0-5.4-2.4-7.7-7.7-7.7h-8.8c-5.4,0-7.7,2.4-7.7,7.7v122.3H433.2z"/>
	<path class="st6" d="M312.1,228.9v-78.2c0-5.4-2.4-7.7-7.7-7.7h-8.8c-5.4,0-7.7,2.4-7.7,7.7v78.2H312.1z"/>
	<path class="st6" d="M493.7,228.9v-78.2c0-5.4-2.4-7.7-7.7-7.7h-8.8c-5.4,0-7.7,2.4-7.7,7.7v78.2H493.7z"/>
	<line class="st8" x1="527" y1="228.9" x2="73" y2="228.9"/>
	<g>
		<line class="st3" x1="527" y1="65.6" x2="73" y2="65.6"/>
		<g>
			<line class="st9" x1="527" y1="65.6" x2="525.5" y2="65.6"/>
			<line class="st10" x1="522.5" y1="65.6" x2="76" y2="65.6"/>
			<line class="st9" x1="74.5" y1="65.6" x2="73" y2="65.6"/>
		</g>
	</g>
	<polyline class="st11" points="73,228.9 73,228.9 73,233.9 	"/>
	<polyline class="st11" points="163.8,228.9 163.8,228.9 163.8,233.9 	"/>
	<polyline class="st11" points="254.6,228.9 254.6,228.9 254.6,233.9 	"/>
	<polyline class="st11" points="345.4,228.9 345.4,228.9 345.4,233.9 	"/>
	<polyline class="st11" points="436.2,228.9 436.2,228.9 436.2,233.9 	"/>
	<polyline class="st8" points="103.2,228.9 103.2,228.9 103.2,230.9 	"/>
	<polyline class="st8" points="194,228.9 194,228.9 194,230.9 	"/>
	<polyline class="st8" points="284.8,228.9 284.8,228.9 284.8,230.9 	"/>
	<polyline class="st8" points="375.6,228.9 375.6,228.9 375.6,230.9 	"/>
	<polyline class="st8" points="466.4,228.9 466.4,228.9 466.4,230.9 	"/>
	<polyline class="st8" points="133.5,228.9 133.5,228.9 133.5,230.9 	"/>
	<polyline class="st8" points="224.3,228.9 224.3,228.9 224.3,230.9 	"/>
	<polyline class="st8" points="315.1,228.9 315.1,228.9 315.1,230.9 	"/>
	<polyline class="st8" points="405.9,228.9 405.9,228.9 405.9,230.9 	"/>
	<polyline class="st8" points="496.7,228.9 496.7,228.9 496.7,230.9 	"/>
	<polyline class="st11" points="527,228.9 527,228.9 527,233.9 	"/>
	<text transform="matrix(1 0 0 1 65.966 248.9726)" class="st0 st1">6a</text>
	<text transform="matrix(1 0 0 1 156.6324 248.9728)" class="st0 st1">9a</text>
	<text transform="matrix(1 0 0 1 246.0657 248.9728)" class="st0 st1">12p</text>
	<text transform="matrix(1 0 0 1 338.7991 248.9728)" class="st0 st1">3p</text>
	<text transform="matrix(1 0 0 1 429.6324 248.9728)" class="st0 st1">6p</text>
	<text transform="matrix(1 0 0 1 520.3657 248.9728)" class="st0 st1">9p</text>
	<path class="st12" d="M397.3,111.3h-78.4c-3.7,0-6.8-3-6.8-6.8V55.4c0-3.7,3-6.8,6.8-6.8h78.4c3.7,0,6.8,3,6.8,6.8v49.1
		C404.1,108.3,401,111.3,397.3,111.3z"/>
	<text transform="matrix(1 0 0 1 325.3492 69.6392)"><tspan x="0" y="0" class="st13 st1">793 Visitors</tspan><tspan x="0" y="14" class="st14 st1">$3,425 Sold</tspan><tspan x="0" y="28" class="st15 st14 st16">($4.32 ACV)</tspan></text>
</g>
</svg>
